<svg class="animated" id="freepik_stories-online-consulting" xmlns="http://www.w3.org/2000/svg" viewBox="0 0 500 500" version="1.1" xmlns:xlink="http://www.w3.org/1999/xlink" xmlns:svgjs="http://svgjs.com/svgjs"><style>svg#freepik_stories-online-consulting:not(.animated) .animable {opacity: 0;}svg#freepik_stories-online-consulting.animated #freepik--Shadows--inject-250 {animation: 1.5s Infinite  linear wind;animation-delay: 0s;}svg#freepik_stories-online-consulting.animated #freepik--Symbol--inject-250 {animation: 1.5s Infinite  linear floating;animation-delay: 0s;}svg#freepik_stories-online-consulting.animated #freepik--character-1--inject-250 {animation: 1.5s Infinite  linear floating;animation-delay: 0s;}svg#freepik_stories-online-consulting.animated #freepik--character-2--inject-250 {animation: 1.5s Infinite  linear floating;animation-delay: 0.5s;}svg#freepik_stories-online-consulting.animated #freepik--Plants--inject-250 {animation: 1.5s Infinite  linear wind;animation-delay: 0.5s;}svg#freepik_stories-online-consulting.animated #freepik--speech-bubble--inject-250 {animation: 1.5s Infinite  linear wind;animation-delay: 0s;}svg#freepik_stories-online-consulting.animated #freepik--Target--inject-250 {animation: 1.5s Infinite  linear wind;animation-delay: 0.5s;}            @keyframes wind {                0% {                    transform: rotate( 0deg );                }                25% {                    transform: rotate( 1deg );                }                75% {                    transform: rotate( -1deg );                }            }                    @keyframes floating {                0% {                    opacity: 1;                    transform: translateY(0px);                }                50% {                    transform: translateY(-10px);                }                100% {                    opacity: 1;                    transform: translateY(0px);                }            }        </style><g id="freepik--Floor--inject-250" class="animable" style="transform-origin: 249.993px 347.43px;"><path id="freepik--floor--inject-250" d="M79,248.69c-94.45,54.53-94.45,142.94,0,197.48s247.59,54.53,342,0,94.45-142.95,0-197.48S173.43,194.15,79,248.69Z" style="fill: rgb(250, 250, 250); transform-origin: 249.993px 347.43px;" class="animable"></path></g><g id="freepik--Shadows--inject-250" class="animable" style="transform-origin: 273.889px 356.82px;"><path id="freepik--Shadow--inject-250" d="M71.31,384.15,206.19,462a13.18,13.18,0,0,0,11.92,0L435.7,336.4c3.29-1.9,3.29-5,0-6.88L300.82,251.64a13.18,13.18,0,0,0-11.92,0L71.31,377.27C68,379.17,68,382.25,71.31,384.15Z" style="fill: rgb(224, 224, 224); transform-origin: 253.498px 356.82px;" class="animable"></path><ellipse id="freepik--shadow--inject-250" cx="413.34" cy="407.13" rx="65.61" ry="37.88" style="fill: rgb(224, 224, 224); transform-origin: 413.34px 407.13px;" class="animable"></ellipse></g><g id="freepik--Symbol--inject-250" class="animable" style="transform-origin: 410.174px 64.7447px;"><g id="freepik--question-mark--inject-250" class="animable" style="transform-origin: 410.174px 64.7447px;"><path d="M415.52,86.27a13,13,0,0,0-1-2.61A12.39,12.39,0,0,0,413,81.44a7.47,7.47,0,0,0-1.88-1.59,3.88,3.88,0,0,0-1.89-.58,2.38,2.38,0,0,0-1.52.47c-.42.32-4.25,2.38-4.67,2.7a3.15,3.15,0,0,0-1,1.44,6.57,6.57,0,0,0-.36,2.28,10.63,10.63,0,0,0,.36,2.71,12.25,12.25,0,0,0,1,2.57,10.86,10.86,0,0,0,1.51,2.2,7.87,7.87,0,0,0,1.89,1.58,4.07,4.07,0,0,0,1.88.6,2.48,2.48,0,0,0,1.52-.45c.43-.32,4.24-2.39,4.67-2.7a3.22,3.22,0,0,0,1-1.41,6.19,6.19,0,0,0,.37-2.28A10.5,10.5,0,0,0,415.52,86.27Z" style="fill: rgb(0, 255, 136); transform-origin: 408.78px 87.5449px;" id="elpczq7hi8dpe" class="animable"></path><g id="elpmoez5uav"><path d="M415.52,86.27a13,13,0,0,0-1-2.61A12.39,12.39,0,0,0,413,81.44a7.47,7.47,0,0,0-1.88-1.59,3.88,3.88,0,0,0-1.89-.58,2.38,2.38,0,0,0-1.52.47c-.42.32-4.25,2.38-4.67,2.7a3.15,3.15,0,0,0-1,1.44,6.57,6.57,0,0,0-.36,2.28,10.63,10.63,0,0,0,.36,2.71,12.25,12.25,0,0,0,1,2.57,10.86,10.86,0,0,0,1.51,2.2,7.87,7.87,0,0,0,1.89,1.58,4.07,4.07,0,0,0,1.88.6,2.48,2.48,0,0,0,1.52-.45c.43-.32,4.24-2.39,4.67-2.7a3.22,3.22,0,0,0,1-1.41,6.19,6.19,0,0,0,.37-2.28A10.5,10.5,0,0,0,415.52,86.27Z" style="fill: rgb(255, 255, 255); opacity: 0.4; transform-origin: 408.78px 87.5449px;" class="animable"></path></g><path d="M423.81,50.83a25.78,25.78,0,0,0-6.35-11.08,23,23,0,0,0-5-3.89,18,18,0,0,0-3.76-1.69,11.88,11.88,0,0,0-3.22-.53,9.16,9.16,0,0,0-2.76.38,11.1,11.1,0,0,0-2.35,1l-4.67,2.7,2.05,5.52a3.71,3.71,0,0,0,1.64,2.21,1.31,1.31,0,0,0,1.07.09,12.75,12.75,0,0,1,1.47-.33,6.88,6.88,0,0,1,2.11,0,9.22,9.22,0,0,1,3,1.24,10.34,10.34,0,0,1,2.28,1.78,12.25,12.25,0,0,1,1.82,2.37,12.4,12.4,0,0,1,1.18,2.75,10.19,10.19,0,0,1,.43,3,7.34,7.34,0,0,1-.74,3.63,6.92,6.92,0,0,1-.65.9,11.09,11.09,0,0,0-1.18.64c-.46.29-4,2.26-4.67,2.7A4.7,4.7,0,0,0,403.92,66a5.75,5.75,0,0,0-.43,3.23l.54,7.16,5.33,3.08,4.67-2.7.73-5.72a3,3,0,0,1,.39-1.2l.16-.07a6.72,6.72,0,0,0,.75-.39c.54-.33,4.33-2.5,4.53-2.62a7,7,0,0,0,1.68-1.35A8.88,8.88,0,0,0,424,62.4a15.35,15.35,0,0,0,.7-5.13A23.72,23.72,0,0,0,423.81,50.83Z" style="fill: rgb(0, 255, 136); transform-origin: 410.204px 56.5544px;" id="eljnyzyy0fjum" class="animable"></path><g id="el3cd7z6njk6e"><path d="M423.81,50.83a25.78,25.78,0,0,0-6.35-11.08,23,23,0,0,0-5-3.89,18,18,0,0,0-3.76-1.69,11.88,11.88,0,0,0-3.22-.53,9.16,9.16,0,0,0-2.76.38,11.1,11.1,0,0,0-2.35,1l-4.67,2.7,2.05,5.52a3.71,3.71,0,0,0,1.64,2.21,1.31,1.31,0,0,0,1.07.09,12.75,12.75,0,0,1,1.47-.33,6.88,6.88,0,0,1,2.11,0,9.22,9.22,0,0,1,3,1.24,10.34,10.34,0,0,1,2.28,1.78,12.25,12.25,0,0,1,1.82,2.37,12.4,12.4,0,0,1,1.18,2.75,10.19,10.19,0,0,1,.43,3,7.34,7.34,0,0,1-.74,3.63,6.92,6.92,0,0,1-.65.9,11.09,11.09,0,0,0-1.18.64c-.46.29-4,2.26-4.67,2.7A4.7,4.7,0,0,0,403.92,66a5.75,5.75,0,0,0-.43,3.23l.54,7.16,5.33,3.08,4.67-2.7.73-5.72a3,3,0,0,1,.39-1.2l.16-.07a6.72,6.72,0,0,0,.75-.39c.54-.33,4.33-2.5,4.53-2.62a7,7,0,0,0,1.68-1.35A8.88,8.88,0,0,0,424,62.4a15.35,15.35,0,0,0,.7-5.13A23.72,23.72,0,0,0,423.81,50.83Z" style="fill: rgb(255, 255, 255); opacity: 0.4; transform-origin: 410.204px 56.5544px;" class="animable"></path></g><path d="M408.31,95.58a3.73,3.73,0,0,1-1.77-.57,7.56,7.56,0,0,1-1.83-1.53,10.39,10.39,0,0,1-1.48-2.15,12.32,12.32,0,0,1-1-2.52,10.61,10.61,0,0,1-.35-2.65,6.25,6.25,0,0,1,.35-2.19,2.89,2.89,0,0,1,.91-1.34,2.14,2.14,0,0,1,1.35-.43,3.74,3.74,0,0,1,1.8.56,7.14,7.14,0,0,1,1.81,1.54,11.5,11.5,0,0,1,1.49,2.18,12,12,0,0,1,1,2.56,9.88,9.88,0,0,1,.37,2.64,5.87,5.87,0,0,1-.36,2.19,2.85,2.85,0,0,1-.94,1.3,2.14,2.14,0,0,1-1.32.41Zm-4.06-19.29-.52-7a5.63,5.63,0,0,1,.39-3.09,4.58,4.58,0,0,1,1.56-1.7,10.76,10.76,0,0,1,2.24-1.06,10.44,10.44,0,0,0,2.42-1.18,6.22,6.22,0,0,0,1.92-2.08,7.63,7.63,0,0,0,.77-3.75,10.67,10.67,0,0,0-.43-3,12.48,12.48,0,0,0-3.06-5.22,11.13,11.13,0,0,0-2.33-1.82,9.56,9.56,0,0,0-3.13-1.26,9.26,9.26,0,0,0-1.32-.11,4.72,4.72,0,0,0-.87.07,14.52,14.52,0,0,0-1.5.33,1.06,1.06,0,0,1-.38.07,1,1,0,0,1-.5-.14A3.51,3.51,0,0,1,398,43.21l-2-5.34a10.78,10.78,0,0,1,2.13-.92,8.63,8.63,0,0,1,2.59-.37,11.52,11.52,0,0,1,3.25.52,17.93,17.93,0,0,1,3.7,1.66,22.94,22.94,0,0,1,4.95,3.86,25.36,25.36,0,0,1,6.3,11,23.77,23.77,0,0,1,.87,6.38,15.19,15.19,0,0,1-.68,5,8.76,8.76,0,0,1-1.68,3,6.53,6.53,0,0,1-2.21,1.6l-2.35,1a9.59,9.59,0,0,0-2,1.12,2.85,2.85,0,0,0-1,2l-.68,5.37Z" style="fill: rgb(250, 250, 250); transform-origin: 407.899px 66.0802px;" id="eli0rojnnjob" class="animable"></path><path d="M400.72,36.81h.08a11.41,11.41,0,0,1,3.09.52A16.75,16.75,0,0,1,407.54,39a22.5,22.5,0,0,1,4.9,3.81,25,25,0,0,1,3.79,5,25.32,25.32,0,0,1,2.45,5.85,23.28,23.28,0,0,1,.87,6.32,15.19,15.19,0,0,1-.67,5,8.47,8.47,0,0,1-1.63,2.89,6.6,6.6,0,0,1-2.13,1.56l-2.35,1a9.36,9.36,0,0,0-2,1.14,3.12,3.12,0,0,0-1.15,2.18l-.63,5-4.5-2.59L404,69.23a5.46,5.46,0,0,1,.37-3,4.27,4.27,0,0,1,1.48-1.61,10.05,10.05,0,0,1,2.19-1,10.89,10.89,0,0,0,2.47-1.21,6.41,6.41,0,0,0,2-2.16,7.72,7.72,0,0,0,.8-3.87,11.11,11.11,0,0,0-.44-3.1,13.56,13.56,0,0,0-1.23-2.85A12.49,12.49,0,0,0,409.71,48a10.78,10.78,0,0,0-2.39-1.86,9.56,9.56,0,0,0-3.2-1.29,8.55,8.55,0,0,0-1.36-.12,6.24,6.24,0,0,0-.91.07,14.81,14.81,0,0,0-1.53.35,1.24,1.24,0,0,1-.31,0,.7.7,0,0,1-.38-.1,3.3,3.3,0,0,1-1.44-2L396.28,38a10.52,10.52,0,0,1,1.91-.8,8.5,8.5,0,0,1,2.53-.37M404.51,82l0,.47a3.37,3.37,0,0,1,1.66.53,7,7,0,0,1,1.75,1.48,11.69,11.69,0,0,1,2.44,4.65,9.9,9.9,0,0,1,.36,2.58,5.6,5.6,0,0,1-.34,2.1,2.74,2.74,0,0,1-.86,1.2,2,2,0,0,1-1.18.36h-.05a3.56,3.56,0,0,1-1.65-.53,7.13,7.13,0,0,1-1.77-1.49,10.32,10.32,0,0,1-1.45-2.1,12.06,12.06,0,0,1-1-2.47,10.13,10.13,0,0,1-.34-2.59,6.07,6.07,0,0,1,.33-2.11,2.69,2.69,0,0,1,.83-1.23,1.9,1.9,0,0,1,1.21-.38V82m-3.79-45.63a9.12,9.12,0,0,0-2.67.38,10.88,10.88,0,0,0-2.35,1l2.05,5.52a3.71,3.71,0,0,0,1.64,2.21,1.19,1.19,0,0,0,.62.16,1.5,1.5,0,0,0,.45-.07,12.75,12.75,0,0,1,1.47-.33,5.31,5.31,0,0,1,.83-.06,8.64,8.64,0,0,1,1.28.1,9.22,9.22,0,0,1,3,1.24,10.34,10.34,0,0,1,2.28,1.78,12.25,12.25,0,0,1,1.82,2.37,12.4,12.4,0,0,1,1.18,2.75,10.19,10.19,0,0,1,.43,3,7.34,7.34,0,0,1-.74,3.63,5.86,5.86,0,0,1-1.85,2,10.42,10.42,0,0,1-2.37,1.16,10.43,10.43,0,0,0-2.28,1.08A4.7,4.7,0,0,0,403.92,66a5.75,5.75,0,0,0-.43,3.23l.54,7.16,5.33,3.08.72-5.72a2.61,2.61,0,0,1,1-1.86A8.86,8.86,0,0,1,413,70.84l2.35-1a6.87,6.87,0,0,0,2.28-1.66,8.73,8.73,0,0,0,1.74-3.06A15.64,15.64,0,0,0,420,60a23.71,23.71,0,0,0-.88-6.44,25.67,25.67,0,0,0-6.36-11.08,22.81,22.81,0,0,0-5-3.89A18.18,18.18,0,0,0,404,36.87a11.94,11.94,0,0,0-3.22-.53ZM404.51,82a2.35,2.35,0,0,0-1.49.47,3.15,3.15,0,0,0-1,1.44,6.57,6.57,0,0,0-.36,2.28,10.63,10.63,0,0,0,.36,2.71,12.25,12.25,0,0,0,1,2.57,10.86,10.86,0,0,0,1.51,2.2,7.87,7.87,0,0,0,1.89,1.58,4.07,4.07,0,0,0,1.88.6h.06a2.43,2.43,0,0,0,1.46-.45,3.13,3.13,0,0,0,1-1.41,6.18,6.18,0,0,0,.38-2.28,10.53,10.53,0,0,0-.38-2.71,12.08,12.08,0,0,0-2.54-4.83,7.07,7.07,0,0,0-1.88-1.58,3.8,3.8,0,0,0-1.89-.59Z" style="fill: rgb(0, 255, 136); transform-origin: 407.827px 66.0953px;" id="elrw9tfregfs" class="animable"></path></g></g><g id="freepik--character-1--inject-250" class="animable" style="transform-origin: 243.648px 246.276px;"><g id="freepik--Laptop--inject-250" class="animable" style="transform-origin: 243.648px 260.221px;"><path d="M74.33,371.49c0,3.37,2.52,5.53,5.63,7.32l127.42,73.57a12.41,12.41,0,0,0,11.26,0L424.21,333.7c3.11-1.8,5.63-4.11,5.63-7.48s-2.52-5.45-5.63-7.24L296.79,245.41a12.41,12.41,0,0,0-11.26,0L80,364.09C76.85,365.89,74.33,368.12,74.33,371.49Z" style="fill: rgb(55, 71, 79); transform-origin: 252.085px 348.895px;" id="el2jf5aqlns7b" class="animable"></path><path d="M80,370.59l127.42,73.57a12.41,12.41,0,0,0,11.26,0L424.21,325.48c3.11-1.8,3.11-4.71,0-6.5L296.79,245.41a12.41,12.41,0,0,0-11.26,0L80,364.09C76.85,365.89,76.85,368.8,80,370.59Z" style="fill: rgb(69, 90, 100); transform-origin: 252.09px 344.785px;" id="eletf8v8x3q15" class="animable"></path><path d="M213,445.52v8.2a11.57,11.57,0,0,1-5.63-1.33L80,378.81c-3.11-1.79-5.63-3.95-5.63-7.32,0-3.16,2.26-5.36,5.19-7.15-2.42,1.71-2.46,4.58.44,6.25l127.43,73.58A11.57,11.57,0,0,0,213,445.52Z" style="fill: rgb(38, 50, 56); transform-origin: 143.685px 409.031px;" id="eltx649m5kyma" class="animable"></path><path d="M97.34,365.05,286.25,256a5.91,5.91,0,0,1,5.31,0l6.88,3.86c1.47.85,1.47,2.22,0,3.07L109.5,372a5.83,5.83,0,0,1-5.3,0l-6.86-3.84C95.88,367.27,95.88,365.89,97.34,365.05Z" style="fill: rgb(38, 50, 56); transform-origin: 197.894px 314.004px;" id="elxuv23uahlh" class="animable"></path><path d="M115.9,376,304.8,266.92a5.43,5.43,0,0,1,4.85-.26l49.18,28.39c1.21.7,1,1.95-.46,2.8L169.68,406.77a5.46,5.46,0,0,1-4.86.27l-49.38-28.26C114.23,378.09,114.43,376.84,115.9,376Z" style="fill: rgb(38, 50, 56); transform-origin: 237.133px 336.847px;" id="elayzpgbwt6yi" class="animable"></path><path d="M279.59,312.73l5.91-3.41c.25-.15.28-.37.05-.5l-5.66-3.27a1,1,0,0,0-.85,0L273.12,309c-.25.14-.27.37-.05.49l5.66,3.27A.94.94,0,0,0,279.59,312.73ZM271,300.92,265,304.33c-.25.15-.28.37-.05.5l5.65,3.26a1,1,0,0,0,.86,0l5.92-3.42c.25-.14.27-.37.05-.5l-5.66-3.26A.94.94,0,0,0,271,300.92Zm-19.11,11-10,5.78c-.25.14-.27.37-.05.49l5.66,3.27a.94.94,0,0,0,.86,0l10-5.78c.25-.14.27-.36.05-.49l-5.66-3.27A.94.94,0,0,0,251.84,312Zm10.47-6-5.92,3.41c-.25.15-.27.37-.05.5l5.66,3.27a1,1,0,0,0,.86,0l5.91-3.42c.25-.14.28-.37.05-.49l-5.65-3.27A.94.94,0,0,0,262.31,305.91ZM239.1,319.3l-5.91,3.42c-.25.14-.28.37-.05.5l5.66,3.26a.94.94,0,0,0,.86,0l5.91-3.41c.25-.15.27-.37.05-.5L240,319.28A1,1,0,0,0,239.1,319.3Zm-8.64,5-5.92,3.41c-.25.15-.27.37,0,.5l5.66,3.26a.94.94,0,0,0,.86,0l5.92-3.41c.25-.15.27-.37,0-.5l-5.66-3.26A.94.94,0,0,0,230.46,324.3Zm22.18,13.33,5.91-3.42c.25-.14.28-.37.05-.49l-5.66-3.27a.92.92,0,0,0-.85,0l-5.92,3.41c-.25.15-.27.37,0,.5l5.66,3.27A1,1,0,0,0,252.64,337.63Zm-8.65,5,5.92-3.42c.25-.14.27-.36.05-.49l-5.66-3.27a.94.94,0,0,0-.86,0l-5.91,3.41c-.26.15-.28.37-.05.5l5.65,3.27A1,1,0,0,0,244,342.62Zm-8.64,5,5.91-3.42c.25-.14.28-.36.05-.49l-5.65-3.27a.94.94,0,0,0-.86,0l-5.92,3.41c-.25.15-.27.37,0,.5l5.66,3.27A1,1,0,0,0,235.35,347.61Zm-8.65,5,5.92-3.42c.25-.14.27-.36,0-.49L227,345.42a1,1,0,0,0-.86,0l-5.91,3.42c-.25.14-.28.36-.05.49l5.65,3.27A1,1,0,0,0,226.7,352.6Zm44.24-34.88,5.92-3.41c.25-.15.27-.37.05-.5l-5.66-3.26a1,1,0,0,0-.86,0L264.48,314c-.26.14-.28.37-.06.5l5.66,3.26A.94.94,0,0,0,270.94,317.72Zm-9.66,14.92,13.2-7.62c.25-.15.27-.37,0-.5l-13.74-7.93a.94.94,0,0,0-.86,0l-6.83,3.94c-.25.14-.27.36,0,.49l7.28,4.2c.22.13.2.35-.06.5l-5.45,3.15c-.26.15-.28.37-.06.5l5.66,3.26A1,1,0,0,0,261.28,332.64Zm-39.47-3.35-5.91,3.41c-.25.15-.28.37-.05.5l5.66,3.26a1,1,0,0,0,.86,0l5.91-3.42c.25-.14.27-.37.05-.5l-5.66-3.26A.94.94,0,0,0,221.81,329.29Zm-8.64,5-5.92,3.41c-.25.15-.27.37-.05.5l5.66,3.27a1,1,0,0,0,.86,0l5.92-3.42c.25-.14.27-.37.05-.49L214,334.25A.94.94,0,0,0,213.17,334.28Zm-47.84,53.29a1,1,0,0,0,.86,0l5.92-3.42c.25-.14.27-.37,0-.49l-5.66-3.27a.94.94,0,0,0-.86,0l-5.92,3.41c-.25.15-.27.37-.05.5ZM144,374.21l-5.91,3.41c-.25.15-.28.37,0,.5l5.65,3.26a.94.94,0,0,0,.86,0l5.92-3.41c.25-.15.27-.37.05-.5l-5.66-3.26A.94.94,0,0,0,144,374.21Zm11,10a.94.94,0,0,0,.86,0l5.92-3.41c.25-.15.27-.37.05-.5L156.14,377a1,1,0,0,0-.86,0l-5.91,3.42c-.26.14-.28.37-.06.5Zm23.85,5.37,5.92-3.42c.25-.14.27-.37,0-.49l-5.66-3.27a.94.94,0,0,0-.86,0l-5.91,3.41c-.25.15-.28.37-.05.5l5.66,3.27A1,1,0,0,0,178.82,389.58Zm-9.5,5a1,1,0,0,0,.86,0l5.91-3.42c.26-.14.28-.36.06-.49l-5.66-3.27a.94.94,0,0,0-.86,0l-5.92,3.41c-.25.15-.27.37-.05.5Zm-16.66-25.39-5.92,3.42c-.25.14-.27.37-.05.5l5.66,3.26a.94.94,0,0,0,.86,0l5.91-3.41c.25-.15.28-.37,0-.5l-5.65-3.26A1,1,0,0,0,152.66,369.21Zm43.22-24.95L190,347.67c-.25.15-.27.37-.05.5l5.66,3.27a1,1,0,0,0,.86,0l5.92-3.42c.25-.14.27-.36.05-.49l-5.66-3.27A.94.94,0,0,0,195.88,344.26Zm-34.58,20-5.91,3.42c-.26.14-.28.37,0,.49L161,371.4a.94.94,0,0,0,.86,0l5.92-3.41c.25-.15.27-.37,0-.5l-5.66-3.27A1,1,0,0,0,161.3,364.22Zm43.22-25-5.91,3.41c-.25.15-.27.37-.05.5l5.66,3.27a1,1,0,0,0,.86,0L211,343c.25-.14.27-.36,0-.49l-5.66-3.27A.94.94,0,0,0,204.52,339.27Zm-17.29,10-5.91,3.42c-.25.14-.27.36,0,.49l5.66,3.27a1,1,0,0,0,.86,0L193.7,353c.25-.14.28-.36.05-.49l-5.66-3.27A1,1,0,0,0,187.23,349.25Zm-8.64,5-5.91,3.42c-.26.14-.28.36-.06.49l5.66,3.27a.94.94,0,0,0,.86,0l5.92-3.41c.25-.15.27-.37.05-.5l-5.66-3.27A1,1,0,0,0,178.59,354.24Zm-8.64,5L164,362.65c-.25.14-.27.36-.05.49l5.66,3.27a.94.94,0,0,0,.86,0l5.91-3.41c.25-.15.28-.37.05-.5l-5.66-3.27A1,1,0,0,0,170,359.23Zm39.46,3.35,5.92-3.41c.25-.15.27-.37,0-.5l-5.66-3.27a1,1,0,0,0-.86,0L203,358.85c-.25.14-.28.36,0,.49l5.65,3.27A.94.94,0,0,0,209.41,362.58Zm80.65-72.7-5.91,3.42c-.26.14-.28.37,0,.49l5.65,3.27a.94.94,0,0,0,.86,0l5.92-3.41c.25-.15.27-.37.05-.5l-5.66-3.27A1,1,0,0,0,290.06,289.88Zm-10.46,6.05-5.92,3.41c-.25.15-.27.37-.05.5l5.66,3.26a.94.94,0,0,0,.86,0l5.91-3.41c.25-.15.28-.37.05-.5l-5.65-3.26A.94.94,0,0,0,279.6,295.93Zm19.11-11-5.92,3.42c-.25.14-.27.36-.05.49l5.66,3.27a.94.94,0,0,0,.86,0l5.91-3.41c.25-.15.28-.37.05-.5l-5.65-3.27A1,1,0,0,0,298.71,284.89Zm-47.79,44.39,5.92-3.41c.25-.15.27-.37.05-.5l-5.66-3.27a1,1,0,0,0-.86,0l-5.91,3.42c-.25.14-.28.36-.05.49l5.65,3.27A.94.94,0,0,0,250.92,329.28Zm57.29-49.41a1,1,0,0,0-.86,0l-5.91,3.42c-.26.14-.28.36-.06.49l5.66,3.27a.94.94,0,0,0,.86,0l5.92-3.41c.25-.15.27-.37.05-.5Zm-90.15,77.72,5.91-3.41c.26-.15.28-.37.05-.5l-5.65-3.27a1,1,0,0,0-.86,0l-5.92,3.42c-.25.14-.27.36-.05.49l5.66,3.27A.94.94,0,0,0,218.06,357.59Zm106-61.21L330,293c.26-.15.28-.37.06-.5l-5.66-3.26a.94.94,0,0,0-.86,0l-5.92,3.41c-.25.15-.27.37-.05.5l5.66,3.26A.94.94,0,0,0,324.07,296.38Zm-16.73.33,5.92-3.42c.25-.14.27-.36.05-.49l-5.66-3.27a1,1,0,0,0-.86,0L300.87,293c-.25.15-.27.37-.05.5l5.66,3.27A1,1,0,0,0,307.34,296.71Zm9-12.17a.94.94,0,0,0-.86,0L309.52,288c-.25.15-.28.37,0,.5l5.66,3.27a1,1,0,0,0,.86,0l5.91-3.42c.25-.14.28-.36.05-.49Zm1.82-1.05,13.75,7.93a.92.92,0,0,0,.85,0l5.92-3.41c.25-.15.27-.37.05-.5l-13.74-7.93a.94.94,0,0,0-.86,0L318.16,283C317.91,283.14,317.89,283.36,318.11,283.49Zm-20,11.06L292.23,298c-.25.14-.27.36-.05.49l5.66,3.27a1,1,0,0,0,.86,0l5.91-3.42c.25-.14.28-.36.05-.49L299,294.52A1,1,0,0,0,298.14,294.55Zm-65.06,37.56-5.91,3.42c-.25.14-.28.37,0,.5l5.66,3.26a.92.92,0,0,0,.85,0l5.92-3.41c.25-.15.27-.37,0-.5l-5.66-3.26A1,1,0,0,0,233.08,332.11Zm81.49-30.7a1,1,0,0,0,.86,0l5.91-3.42c.25-.14.27-.37.05-.49l-5.66-3.27a.94.94,0,0,0-.86,0L309,297.64c-.25.15-.28.37,0,.5Zm-72.84,25.71-5.92,3.42c-.25.14-.27.37-.05.49l5.66,3.27a.94.94,0,0,0,.86,0l5.91-3.41c.26-.15.28-.37.05-.5l-5.65-3.26A1,1,0,0,0,241.73,327.12ZM174,382.57a1,1,0,0,0,.86,0l5.91-3.42c.25-.14.27-.37.05-.5l-5.66-3.26a.94.94,0,0,0-.86,0l-5.91,3.41c-.25.15-.28.37-.05.5ZM163.92,372,158,375.46c-.25.14-.27.37,0,.49l5.66,3.27a.94.94,0,0,0,.86,0l5.91-3.41c.25-.15.28-.37.05-.5L164.78,372A1,1,0,0,0,163.92,372Zm19.56,5.51,5.91-3.41c.26-.15.28-.37.06-.5l-5.66-3.26a.94.94,0,0,0-.86,0L177,373.82c-.25.15-.27.37,0,.5l5.66,3.26A.94.94,0,0,0,183.48,377.55Zm8.64-5,5.92-3.41c.25-.15.27-.37.05-.5l-5.66-3.26a1,1,0,0,0-.86,0l-5.91,3.42c-.25.14-.28.37,0,.5l5.66,3.26A.92.92,0,0,0,192.12,372.56Zm8.65-5,5.91-3.41c.26-.15.28-.37.06-.5l-5.66-3.27a1,1,0,0,0-.86,0l-5.92,3.42c-.25.14-.27.37-.05.49l5.66,3.27A.94.94,0,0,0,200.77,367.57Zm-28.2-.52-5.92,3.42c-.25.14-.27.36-.05.49l5.66,3.27a.94.94,0,0,0,.86,0l5.92-3.41c.25-.15.27-.37.05-.5L173.43,367A1,1,0,0,0,172.57,367.05Zm8.64-5-5.91,3.42c-.25.14-.28.36-.05.49l5.66,3.27a1,1,0,0,0,.86,0l5.91-3.42c.25-.14.28-.36,0-.49L182.07,362A1,1,0,0,0,181.21,362.06Zm34.58-20-5.91,3.41c-.25.15-.28.37,0,.5l5.66,3.26a.94.94,0,0,0,.85,0l5.92-3.42c.25-.14.27-.37.05-.5l-5.66-3.26A.94.94,0,0,0,215.79,342.1Zm-8.64,5-5.92,3.41c-.25.15-.27.37,0,.5l5.66,3.27a1,1,0,0,0,.86,0l5.91-3.42c.26-.14.28-.37.06-.49L208,347.06A.94.94,0,0,0,207.15,347.09Zm17.29-10-5.92,3.41c-.25.15-.27.37-.05.5l5.66,3.26a.94.94,0,0,0,.86,0l5.91-3.41c.26-.15.28-.37,0-.5l-5.65-3.26A.94.94,0,0,0,224.44,337.11Zm-34.58,20-5.92,3.42c-.25.14-.27.36-.05.49l5.66,3.27a1,1,0,0,0,.86,0l5.92-3.42c.25-.14.27-.36,0-.49L190.72,357A.94.94,0,0,0,189.86,357.07Zm8.64-5-5.91,3.41c-.25.15-.28.37-.05.5l5.66,3.27a1,1,0,0,0,.86,0l5.91-3.42c.25-.14.27-.36.05-.49l-5.66-3.27A.94.94,0,0,0,198.5,352.08Zm-11,32.51,5.91-3.42c.26-.14.28-.37.05-.5l-5.65-3.26a.94.94,0,0,0-.86,0L181,380.85c-.25.15-.27.37-.05.5l5.66,3.27A1,1,0,0,0,187.47,384.59Zm-45.59-2.16-5.65-3.26a.94.94,0,0,0-.86,0l-5.92,3.41c-.25.15-.27.37,0,.5l5.66,3.26a1,1,0,0,0,.86,0l5.91-3.42C142.09,382.79,142.11,382.56,141.88,382.43Zm11.27,2.83L147.49,382a.92.92,0,0,0-.85,0l-9.1,5.25c-.26.14-.28.37,0,.49l5.65,3.27a.94.94,0,0,0,.86,0l9.1-5.25C153.35,385.61,153.38,385.39,153.15,385.26ZM133.44,376l-5.66-3.26a1,1,0,0,0-.86,0L119.64,377c-.25.14-.27.36,0,.49l5.66,3.27a.94.94,0,0,0,.86,0l7.28-4.2C133.64,376.33,133.66,376.11,133.44,376Zm5.58-3.22a.94.94,0,0,0,.86,0l5.91-3.41c.25-.15.28-.37.05-.5l-5.65-3.27a1,1,0,0,0-.86,0L133.41,369c-.25.14-.27.36,0,.49Zm24.49,15.86-5.66-3.27a.94.94,0,0,0-.86,0L145.62,392c-.25.14-.27.36-.05.49l5.66,3.27a1,1,0,0,0,.86,0l11.37-6.57C163.71,389,163.74,388.75,163.51,388.62Zm4,7-5.66-3.27a.94.94,0,0,0-.86,0l-7.28,4.2c-.25.15-.27.37,0,.5l5.66,3.27a1,1,0,0,0,.86,0l7.28-4.21C167.7,396,167.72,395.78,167.5,395.65Zm35.79-60a.94.94,0,0,0,.86,0l5.92-3.41c.25-.15.27-.37.05-.5l-5.66-3.27a1,1,0,0,0-.86,0l-5.91,3.42c-.26.14-.28.37-.06.49Zm-17.29,10a.94.94,0,0,0,.86,0l5.92-3.41c.25-.15.27-.37.05-.5l-5.66-3.26a.94.94,0,0,0-.86,0l-5.91,3.41c-.26.15-.28.37-.06.5Zm-38.34,22.14a1,1,0,0,0,.86,0l5.92-3.42c.25-.14.27-.36.05-.49l-5.66-3.27a1,1,0,0,0-.86,0L142.06,364c-.25.14-.28.36-.05.49Zm47-27.13a.94.94,0,0,0,.86,0l5.91-3.41c.25-.15.28-.37.05-.5l-5.66-3.27a1,1,0,0,0-.85,0L189,336.88c-.25.14-.27.37,0,.5Zm-17.29,10a.94.94,0,0,0,.86,0l5.91-3.41c.25-.14.28-.37.05-.5l-5.65-3.26a.94.94,0,0,0-.86,0l-5.92,3.41c-.25.15-.27.37-.05.5ZM171.75,396a.94.94,0,0,0-.86,0l-9.1,5.25c-.25.15-.28.37,0,.5l5.65,3.26a.94.94,0,0,0,.86,0l9.1-5.25c.25-.14.28-.37.05-.5ZM165,357.79a1,1,0,0,0,.86,0l5.92-3.42c.25-.14.27-.36.05-.49l-5.66-3.27a.94.94,0,0,0-.86,0L159.35,354c-.26.15-.28.37-.06.5Zm-8.64,5a1,1,0,0,0,.86,0l5.91-3.42c.25-.14.28-.36,0-.49l-5.66-3.27a.92.92,0,0,0-.85,0L150.7,359c-.25.15-.27.37,0,.5ZM331.9,303.53a1,1,0,0,0-.86,0L316.48,312c-.25.14-.27.36-.05.49l5.66,3.27a.94.94,0,0,0,.86,0l14.56-8.4c.25-.15.27-.37.05-.5Zm-19.11,11a1,1,0,0,0-.86,0L306,318c-.25.14-.28.37,0,.5l5.65,3.26a.94.94,0,0,0,.86,0l5.92-3.41c.25-.15.27-.37.05-.5Zm-116.68,65,5.92-3.41c.25-.15.27-.37.05-.5l-5.66-3.26a.94.94,0,0,0-.86,0l-5.91,3.41c-.25.15-.28.37-.05.5l5.65,3.26A.94.94,0,0,0,196.11,379.59Zm99.39-55a.94.94,0,0,0-.86,0L288.73,328c-.25.15-.28.37-.05.5l5.65,3.26a1,1,0,0,0,.86,0l5.92-3.42c.25-.15.27-.37.05-.5Zm45-26a1,1,0,0,0-.85,0L333.77,302c-.25.14-.27.36,0,.49l5.66,3.27a1,1,0,0,0,.86,0l5.91-3.42c.25-.14.28-.36.05-.49Zm14.31-1.72-13.74-7.94a1,1,0,0,0-.86,0l-5.92,3.42c-.25.14-.27.36-.05.49L348,300.76a1,1,0,0,0,.86,0l5.92-3.42C355.05,297.17,355.07,297,354.85,296.82ZM263.2,343.2a.94.94,0,0,0-.86,0l-7.28,4.2c-.25.14-.28.37-.05.5l5.66,3.26a.94.94,0,0,0,.86,0l7.28-4.2c.25-.14.27-.37.05-.5ZM285,330.59a.94.94,0,0,0-.86,0l-9.1,5.25c-.25.15-.28.37-.05.5l5.66,3.26a.94.94,0,0,0,.85,0l9.1-5.26c.26-.14.28-.37.05-.49Zm-41.86,24.17a1,1,0,0,0-.86,0l-48.68,28.11c-.26.15-.28.37-.06.5l5.66,3.27a1,1,0,0,0,.86,0l48.69-28.11c.25-.15.27-.37.05-.5Zm-51.41,29.68a.94.94,0,0,0-.86,0l-7.28,4.2c-.26.15-.28.37,0,.5l5.65,3.26a1,1,0,0,0,.86,0l7.28-4.21c.25-.14.28-.36,0-.49ZM253.19,349a.94.94,0,0,0-.86,0l-7.28,4.2c-.25.14-.28.37-.05.49l5.66,3.27a.94.94,0,0,0,.86,0l7.28-4.2c.25-.15.27-.37.05-.5Zm-71.43,41.24a.94.94,0,0,0-.86,0l-7.28,4.2c-.26.15-.28.37-.05.5l5.65,3.26a.94.94,0,0,0,.86,0l7.28-4.2c.25-.14.28-.37,0-.49Zm91.45-52.8a.94.94,0,0,0-.86,0l-7.28,4.2c-.25.15-.28.37-.05.5l5.66,3.26a.92.92,0,0,0,.85,0l7.29-4.2c.25-.14.27-.37.05-.49Zm30.94-17.86a.94.94,0,0,0-.86,0L297.37,323c-.25.15-.27.37-.05.5l5.66,3.26a.94.94,0,0,0,.86,0l5.91-3.41c.26-.15.28-.37.05-.5ZM323.51,306l5.91-3.41c.26-.15.28-.37.05-.5l-5.65-3.26a1,1,0,0,0-.86,0L317,302.31c-.25.14-.27.37-.05.5l5.66,3.26A.94.94,0,0,0,323.51,306Zm-35.28,1.7,5.92-3.41c.25-.15.27-.37.05-.5l-5.66-3.27a1,1,0,0,0-.86,0L281.77,304c-.26.14-.28.36-.06.49l5.66,3.27A.94.94,0,0,0,288.23,307.74Zm-23,31.93,17.29-10c.25-.14.27-.36.05-.49L277,325.92a1,1,0,0,0-.86,0l-17.29,10c-.25.15-.27.37-.05.5l5.66,3.27A1,1,0,0,0,265.27,339.67ZM314,311.06a.92.92,0,0,0,.85,0l5.92-3.41c.25-.15.27-.37.05-.5l-5.66-3.26a.94.94,0,0,0-.86,0l-5.91,3.41c-.25.15-.28.37,0,.5Zm-7.23-4.69L312.7,303c.25-.14.27-.37.05-.49l-5.66-3.27a.94.94,0,0,0-.86,0l-5.92,3.41c-.25.15-.27.37-.05.5l5.66,3.27A1,1,0,0,0,306.78,306.37Zm-50.15,38.29,5.91-3.42c.25-.14.28-.36,0-.49l-5.66-3.27a.94.94,0,0,0-.86,0l-5.91,3.41c-.25.15-.27.37,0,.5l5.66,3.27A1,1,0,0,0,256.63,344.66ZM294.9,322.1a1,1,0,0,0,.86,0l5.91-3.42c.25-.14.27-.37.05-.49l-5.66-3.27a.94.94,0,0,0-.86,0l-5.91,3.41c-.25.15-.28.37-.05.5Zm-81.5,47.51,5.92-3.41c.25-.15.27-.37.05-.5l-5.66-3.27a1,1,0,0,0-.86,0l-5.91,3.42c-.26.14-.28.37-.06.49l5.66,3.27A.94.94,0,0,0,213.4,369.61Zm8.65-5,5.91-3.41c.25-.15.28-.37,0-.5l-5.66-3.27a1,1,0,0,0-.85,0l-5.92,3.42c-.25.14-.27.37-.05.49l5.66,3.27A.94.94,0,0,0,222.05,364.62Zm-17.29,10,5.91-3.41c.25-.15.28-.37.05-.5l-5.65-3.26a.94.94,0,0,0-.86,0l-5.92,3.41c-.25.14-.27.37,0,.5l5.66,3.26A.94.94,0,0,0,204.76,374.6Zm34.58-20,5.91-3.41c.25-.15.28-.37.05-.5l-5.66-3.27a1,1,0,0,0-.86,0l-5.91,3.42c-.25.14-.27.36-.05.49l5.66,3.27A1,1,0,0,0,239.34,354.64Zm-8.65,5,5.92-3.41c.25-.15.27-.37,0-.5L231,352.45a1,1,0,0,0-.86,0l-5.91,3.42c-.26.14-.28.36-.06.49l5.66,3.27A.94.94,0,0,0,230.69,359.63Zm17.29-10,5.92-3.42c.25-.14.27-.36,0-.49l-5.66-3.27a.94.94,0,0,0-.86,0l-5.92,3.41c-.25.15-.27.37,0,.5l5.66,3.27A1,1,0,0,0,248,349.65Zm47.18-69.43a1,1,0,0,0,.86,0l5.91-3.42c.25-.14.27-.36.05-.49l-1.51-.87a.92.92,0,0,0-.85,0l-5.92,3.41c-.25.15-.27.37-.05.5Zm-43,27.2a.94.94,0,0,0,.86,0L259,304c.25-.15.28-.37.05-.5l-5.65-3.27a1,1,0,0,0-.86,0l-5.92,3.42c-.25.14-.27.37-.05.49Zm17.29-10a1,1,0,0,0,.86,0l5.91-3.41c.25-.15.28-.37.05-.5l-5.66-3.27a1,1,0,0,0-.85,0l-5.92,3.42c-.25.14-.27.36-.05.49Zm-27.85,16.08a1,1,0,0,0,.86,0l5.92-3.42c.25-.14.27-.37.05-.49l-5.66-3.27a.94.94,0,0,0-.86,0L236,309.75c-.26.15-.28.37-.06.5Zm19.2-11.09a.94.94,0,0,0,.86,0l5.92-3.41c.25-.15.27-.37.05-.5L262,295.22a1,1,0,0,0-.86,0l-5.91,3.42c-.26.14-.28.36-.06.49ZM224.34,323.5a1,1,0,0,0,.86,0l5.92-3.42c.25-.14.27-.36,0-.49l-5.66-3.27a.94.94,0,0,0-.86,0l-5.91,3.41c-.26.15-.28.37-.05.5Zm8.65-5a1,1,0,0,0,.86,0l5.91-3.42c.25-.14.28-.36.05-.49l-5.66-3.27a.92.92,0,0,0-.85,0l-5.92,3.41c-.25.15-.27.37,0,.5Zm44.88-28.31a1,1,0,0,0,.86,0l5.91-3.42c.25-.14.27-.36.05-.49l-1.51-.87a.92.92,0,0,0-.85,0l-5.92,3.41c-.25.15-.27.37-.05.5Zm25.93-15a1,1,0,0,0,.86,0l5.91-3.42c.26-.14.28-.37.06-.49l-1.51-.87a.94.94,0,0,0-.86,0l-5.91,3.41c-.26.15-.28.37-.06.5Zm11.89,6.86a1,1,0,0,0,.86,0l5.91-3.42c.25-.14.28-.36.05-.49l-5.66-3.27a1,1,0,0,0-.86,0l-5.91,3.42c-.25.14-.27.36-.05.49Zm16.46,19,5.92-3.41c.25-.15.27-.37.05-.5l-5.66-3.27a1,1,0,0,0-.86,0l-5.91,3.42c-.25.14-.28.37-.05.49l5.65,3.27A.94.94,0,0,0,332.15,301.05Zm-45.64-15.84a1,1,0,0,0,.86,0l5.92-3.42c.25-.14.27-.36,0-.49l-1.51-.87a.94.94,0,0,0-.86,0l-5.91,3.41c-.26.15-.28.37-.06.5ZM215.7,328.49a1,1,0,0,0,.86,0l5.91-3.42c.25-.14.28-.36.05-.49l-5.66-3.27a1,1,0,0,0-.85,0l-5.92,3.42c-.25.14-.27.36-.05.49Z" style="fill: rgb(69, 90, 100); transform-origin: 237.223px 337.71px;" id="eltc1l4w2g6v" class="animable"></path><g id="freepik--tuch-pad--inject-250" class="animable" style="transform-origin: 289.19px 370.015px;"><polygon points="240.46 377.68 241.75 378.42 275.9 398.14 336.65 363.07 337.92 362.35 302.47 341.89 240.46 377.68" style="fill: rgb(38, 50, 56); transform-origin: 289.19px 370.015px;" id="elzbzis1616" class="animable"></polygon><polygon points="335.87 363.52 302.47 344.25 242.52 378.87 275.9 398.14 335.87 363.52" style="fill: rgb(55, 71, 79); transform-origin: 289.195px 371.195px;" id="elgmtg6kflv8d" class="animable"></polygon></g><path d="M71.88,365c-2.47-1.14-3.14-3.1-3.37-6.55L57.46,196.8a11.21,11.21,0,0,1,5.2-9.51L268.23,68.61c3.11-1.8,5.39-2.77,8.26-.81s2.94,3,3.17,6.5l11,161.61a11.21,11.21,0,0,1-5.21,9.51L79.93,364.1C76.82,365.9,75.06,366.43,71.88,365Z" style="fill: rgb(55, 71, 79); transform-origin: 174.06px 216.269px;" id="el4jik5fajnts" class="animable"></path><path d="M279.66,74.3c-.23-3.45-3-4.79-6.06-3L68,190a10.61,10.61,0,0,0-3.85,4.13l-5.36-2.7h0a10.8,10.8,0,0,1,3.87-4.13L268.23,68.61c3.11-1.8,5.4-2.79,8.26-.81C279.51,69.89,279.43,70.85,279.66,74.3Z" style="fill: rgb(69, 90, 100); transform-origin: 169.225px 130.42px;" id="el03ddso0stz15" class="animable"></path><path d="M79.52,364.34c-2.84,1.67-4.63,1.88-7.64.62-2.3-1-3.13-3.1-3.37-6.55L57.46,196.79a10.07,10.07,0,0,1,1.35-5.36l5.37,2.68h0a10.09,10.09,0,0,0-1.35,5.36l11,161.62C74.09,364.3,76.86,365.91,79.52,364.34Z" style="fill: rgb(38, 50, 56); transform-origin: 68.4875px 278.6px;" id="eljzb8rxli8hl" class="animable"></path><path d="M71.6,196.16,269.43,82c1.87-1.08,3.5-.27,3.64,1.8l10.3,150.77a6.69,6.69,0,0,1-3.12,5.7L82.42,354.44c-1.86,1.07-3.49.27-3.63-1.81L68.48,201.87A6.73,6.73,0,0,1,71.6,196.16Z" id="elyy98is5gvp" class="animable" style="transform-origin: 175.925px 218.218px;"></path><path d="M71.6,196.16a6.73,6.73,0,0,0-3.12,5.71L78.62,350.12,274.19,237.24a6.72,6.72,0,0,0,3.12-5.7L267.17,83.28Z" style="fill: rgb(255, 255, 255); transform-origin: 172.895px 216.7px;" id="el58wyepgai5q" class="animable"></path></g><g id="freepik--Character--inject-250" class="animable" style="transform-origin: 201.791px 183.426px;"><path id="freepik--Bottom--inject-250" d="M121.84,241.1c-9.78,29.65-7.33,46.75-6.27,63.43s1.51,23.5,1.51,23.5L225.4,265.51s-1.55-15.65-4.07-24.68Z" style="fill: rgb(38, 50, 56); transform-origin: 169.951px 284.43px;" class="animable"></path><g id="freepik--Top--inject-250" class="animable" style="transform-origin: 201.791px 154.791px;"><path d="M312.69,149.15c-1.06.12-1.8.82-3.8,1.75,2-1.67,4.94-4.15,6.21-7.19a3.37,3.37,0,0,0,.27-1.65c-.09-.46-.53-1.72-1.3-1.88,0,0,.95-1.41,1.8-2.62.69-1,2.09-3.36.35-3.95-1.38-.47-3.12.42-4.93,1.81a5.05,5.05,0,0,0,1.28-2.82c-.27-1.89-1.63-2.68-5-.33a101.67,101.67,0,0,1-10.51,6.84c-3.18,1.68-7.5,3.74-11.18,3a1.56,1.56,0,0,1-1.07-.71,1.66,1.66,0,0,1-.19-.69,5.17,5.17,0,0,1,.73-2.74c1.49-2.87,4.69-6.8,1.78-9.72-.51-.52-1.26-.87-1.82-.27-2.21,2.39-4.53,4.74-6.75,7.12a57.2,57.2,0,0,0-6.32,7.34c-1.93,3-3.53,6.07-6.36,10.25s-6,8-13.6,15.4c-4.2,4.08-11.13,11.42-11.13,11.42s-14.1-21.54-19.69-30.11c-10.21-15.63-18.23-19.21-33.4-20l7.19,37s19.18,33.1,26.46,43.78,13.07,12,17.34,11.12c13.34-2.95,21.66-21.23,38.22-48.35a16.48,16.48,0,0,1,11.08-7.76c2.49-.46,5.25-1.17,6.88-1.56a46.12,46.12,0,0,0,7.24-2.72c3.84-1.87,3.93-1.57,9.07-6.62.64-.62,3.16-3.38,2.83-4.21A1.48,1.48,0,0,0,312.69,149.15Z" style="fill: rgb(255, 168, 167); transform-origin: 252.559px 174.594px;" id="ellbhqbnforb" class="animable"></path><path d="M308.89,150.9a39,39,0,0,1-5.29,2.82c-1.79.85-3.69,1.49-5.54,2.36a23,23,0,0,0,5.85-1.68A14.89,14.89,0,0,0,308.89,150.9Z" style="fill: rgb(242, 143, 143); transform-origin: 303.475px 153.49px;" id="eli7pi3vkngf" class="animable"></path><path d="M273.88,158.75a5,5,0,0,1,.1-1.16,7.33,7.33,0,0,1,.86-2.11,9.94,9.94,0,0,1,3.07-3.25,9.7,9.7,0,0,1,9.47-.63c.08,0,.2.33,0,.32-3.08-.27-6.15-.39-8.86,1.37a10.21,10.21,0,0,0-4,6.65c-.05.24-.3.19-.37,0A4.21,4.21,0,0,1,273.88,158.75Z" style="fill: rgb(242, 143, 143); transform-origin: 280.684px 155.379px;" id="el47qmt7yzcft" class="animable"></path><path d="M294.21,146a68.09,68.09,0,0,0,8.68-4.81c2.67-1.64,5.24-3.48,7.81-5.28,0,0,.08.06.06.08a39.44,39.44,0,0,1-8.05,6.2,57.15,57.15,0,0,1-8.46,3.87S294.18,146,294.21,146Z" style="fill: rgb(242, 143, 143); transform-origin: 302.483px 140.985px;" id="elh3qg7sm8bze" class="animable"></path><path d="M294.93,151.46a68.58,68.58,0,0,0,8.68-4.8c1.07-.66,2.13-1.35,3.17-2.06a35.85,35.85,0,0,0,3-2.15l.87-.73a8.83,8.83,0,0,1,1.13-.91,4.22,4.22,0,0,1,1.42-.5s.12,0,.1.06a5.07,5.07,0,0,0-1.64.94,11,11,0,0,0-.93.88c-.26.27-.54.5-.83.76-.88.79-1.8,1.53-2.76,2.24-1.2.88-2.45,1.7-3.73,2.47a56.63,56.63,0,0,1-8.46,3.86S294.9,151.47,294.93,151.46Z" style="fill: rgb(242, 143, 143); transform-origin: 304.111px 145.915px;" id="elzznltgo2g6" class="animable"></path><path d="M186.55,128.28c16.81-.65,22.92,3.27,30,12.46,6.71,8.66,24.8,37.76,24.8,37.76l12.27-11.79s-.53,4,4.57,10.9a17.77,17.77,0,0,0,12.49,7.18S263.76,198.1,257,207.33s-13.87,16.25-22.32,14.31-12.91-9.54-18.52-18.44-21.79-37-21.79-37Z" style="fill: rgb(55, 71, 79); transform-origin: 228.615px 175.088px;" id="el54a3w83kmtr" class="animable"></path><path d="M229.41,203.58c.88-8.93,5.58-20.21,12-25.08,0,0-.73-1.18-1.95-3.11C229.72,183.33,228.63,195.6,229.41,203.58Z" style="fill: rgb(38, 50, 56); transform-origin: 235.308px 189.485px;" id="elx8968r6u1x" class="animable"></path><g id="freepik--Chest--inject-250" class="animable" style="transform-origin: 171.994px 197.634px;"><path d="M122.13,247.19c1.21-13.56,10.48-23.69,7.63-36.77-3.28-15-7.71-27.76-8.75-34.33-2.28-14.53,1.16-31.44,3.24-38.46,11.1-3.06,19-4.68,19-4.68s12.75-2.21,32.35-3.79l10.92-.51c10.3,3.94,23.85,19,32,31.2,9.5,14.3,4.89,29.8-4.88,34.88l-1.07,17.05s6.38,21.43,7.74,32C218.69,254,198.7,267,169.84,266.61,153.2,266.39,131.78,259.84,122.13,247.19Z" style="fill: rgb(240, 240, 240); transform-origin: 171.994px 197.634px;" id="elr7fd9hehsr8" class="animable"></path><path d="M182.18,194.2s-7.36,9.9-22.86,8.82c-16-1.12-19.64-14.18-19.64-14.18s0,17.31,19.14,18.65C176.44,208.73,182.18,194.2,182.18,194.2Z" style="fill: rgb(224, 224, 224); transform-origin: 160.93px 198.203px;" id="el76qqu2qgwte" class="animable"></path></g><path d="M106.76,74.71a13.9,13.9,0,0,1,.49-4.06,10.36,10.36,0,0,1,3.85-5.47c2.09-1.5,4.76-2.24,6.44-4.19,1.21-1.42,1.73-3.28,2.6-4.93A14.23,14.23,0,0,1,131,48.78,16.65,16.65,0,0,1,141.19,51c1.46.85,2.49,2,4.09,2.56a24.24,24.24,0,0,1,4.93,2.06c4.62,2.88,7.28,7.71,5,13-.79,1.79-2.17,3.55-1.79,5.47a6.28,6.28,0,0,0,1.13,2.23c2.34,3.35,5,6.6,6.38,10.44a13.27,13.27,0,0,1,.35,8.79c-1,2.77-4.1,4.24-4.81,7a9.92,9.92,0,0,0-.1,3.44,45.44,45.44,0,0,1,.38,7,11.1,11.1,0,0,1-2.32,6.49c-2.68,3.16-7.36,3.75-11.49,3.28a3.61,3.61,0,0,0-2.35.23,4.77,4.77,0,0,0-1.3,1.8c-1.4,2.4-4.3,3.54-7.07,3.8a12.49,12.49,0,0,1-7.81-1.65,8.44,8.44,0,0,1-4-6.67,2.8,2.8,0,0,0-1.19,3,8.39,8.39,0,0,0,1.56,3.06,7.61,7.61,0,0,1-6.06-3.19c-2.25-3.35-.08-6.13.58-9.48a6.39,6.39,0,0,0-.83-4.33,12,12,0,0,0-3-3.31c-2.47-2-4.75-3.43-5.5-6.66-.58-2.52-.3-5.42,2.25-6.7a3.6,3.6,0,0,0-3.48,2.14,10.75,10.75,0,0,0-.84,4.33,9.35,9.35,0,0,1-2.51-7.21,9.58,9.58,0,0,1,3.18-6.16c1.6-1.47,2.65-2.7,2.6-5C107,78.72,106.78,76.7,106.76,74.71Z" style="fill: rgb(38, 50, 56); transform-origin: 131.61px 88.6827px;" id="el487qa4lvbme" class="animable"></path><path d="M143.59,50.43c-8.24-1.32-16.49,10.25-13,20.59S156.48,51.74,143.59,50.43Z" style="fill: rgb(0, 255, 136); transform-origin: 138.659px 61.7665px;" id="elwfxurqzdklh" class="animable"></path><g id="freepik--Head--inject-250" class="animable" style="transform-origin: 171.169px 89.5376px;"><path d="M207.62,60.08c-.62-9.55-11.26-10.8-14.12-10.69-3.9.15-8.25-2.27-10.58-5.47A13.57,13.57,0,0,0,170.13,39c-7.74,1.38-6.24,4.69-12.82,6.35-5.88,1.48-9.41,2.22-15.32,6.38-12.13,8.52-15.59,25.64-8.81,42.05,3.48,8.44,8.13,12.62,13.78,19.83l6,.48c2.35-4.92,7.35-3.57,12.11-4.36,3.08-1.1,5-4.3,8.11-5.4s6.58.17,9.89-.15c2.57-.24,5.24-1.55,7.82-.67,5.82,2.9,15.26-1.6,15.12-8.58-.06-2.12-1.05-4.24-.49-6.28.75-2.68,3.76-4,5.49-6.12a7.25,7.25,0,0,0,.24-8.7C207.29,68.85,208,65.51,207.62,60.08Z" style="fill: rgb(38, 50, 56); transform-origin: 171.169px 76.4561px;" id="eluloi6mclnp8" class="animable"></path><path d="M177.44,129.61c-2.39.07-2.33-1.49-2.3-2.39l.07-4.09c5.07.39,9.62-.22,12.66-2.14,5.12-3.22,9.74-8.1,10.77-25,.41-6.83-1.34-10.16-1.13-11.69a43.32,43.32,0,0,0,.44-9.45c-.22-3-.77-5-3.43-6.79a22.26,22.26,0,0,0-4.94-2.17,14.92,14.92,0,0,1-3.51-1.56,4.9,4.9,0,0,1-2.2-3,11.32,11.32,0,0,0-.4,5.59,5.34,5.34,0,0,0,3.56,4,7.39,7.39,0,0,1-9.87-3.45c-.48-1-.74-2.09-1.2-3.1C173,58,165,59,160.19,62.41a1.24,1.24,0,0,0-.45.46,1.41,1.41,0,0,0,0,.84,14.77,14.77,0,0,1-7.58,15.48,17.11,17.11,0,0,1,1.29,6.67,7.19,7.19,0,0,1-.6,3.11,3.42,3.42,0,0,1-2.39,1.93c-2.4.37-2.71-2.57-3.83-4a9.64,9.64,0,0,0-4.14-3.19,7.2,7.2,0,0,0-8.32,2c-3.19,4-3.61,10.54,1.45,16.91,4.93,6.21,11.19,2.94,11.36,1.77,0,0-.33,18.72-.45,21.86s-.19,6-4.18,7c0,0,8.15,8.33,25.64,6.82C180.9,138.86,177.44,129.61,177.44,129.61Z" style="fill: rgb(255, 168, 167); transform-origin: 165.246px 99.9833px;" id="elcnirj15e7vc" class="animable"></path><path d="M139,100.22a2.77,2.77,0,1,0,3-2.52A2.77,2.77,0,0,0,139,100.22Z" style="fill: rgb(0, 255, 136); transform-origin: 141.76px 100.46px;" id="elxr6zrs9e73d" class="animable"></path><path d="M195.71,79.64,189,77.27a3.4,3.4,0,0,1,4.41-2.22A3.72,3.72,0,0,1,195.71,79.64Z" style="fill: rgb(38, 50, 56); transform-origin: 192.436px 77.2441px;" id="elkceg7swkrp7" class="animable"></path><path d="M163.07,78.92l6.77-2.37a3.44,3.44,0,0,0-4.45-2.27A3.77,3.77,0,0,0,163.07,78.92Z" style="fill: rgb(38, 50, 56); transform-origin: 166.374px 76.501px;" id="elx054ul7cnm9" class="animable"></path><path d="M175.21,123.13c-11.19-1.46-21.86-4.85-24.4-11.8a11.51,11.51,0,0,0,6.11,9.76,40.63,40.63,0,0,0,18.23,5.34Z" style="fill: rgb(242, 143, 143); transform-origin: 163.01px 118.88px;" id="elog0uiv3mv3c" class="animable"></path><polygon points="189.23 95.59 179.77 99.77 178.39 81.74 189.23 95.59" style="fill: rgb(242, 143, 143); transform-origin: 183.81px 90.755px;" id="eli2kxq9r2sa" class="animable"></polygon><path d="M169.83,101.88a5.68,5.68,0,1,0,11,3Z" style="fill: rgb(177, 102, 104); transform-origin: 175.229px 105.483px;" id="el05lnmeuntmn9" class="animable"></path><path d="M173.83,108.84a5.63,5.63,0,0,0,3.38-.14,6.81,6.81,0,0,0-4.76-4.64,6.62,6.62,0,0,0-2.79-.16A5.68,5.68,0,0,0,173.83,108.84Z" style="fill: rgb(242, 143, 143); transform-origin: 173.435px 106.427px;" id="elhgqdmujae6l" class="animable"></path><circle cx="168.74" cy="86.41" r="2.98" style="fill: rgb(38, 50, 56); transform-origin: 168.74px 86.41px;" id="elsopv3hbr9n8" class="animable"></circle><circle cx="190.2" cy="86.59" r="2.98" style="fill: rgb(38, 50, 56); transform-origin: 190.2px 86.59px;" id="elai51xpsxvjp" class="animable"></circle></g><path d="M143.58,83.61l-8.58-2A66.27,66.27,0,0,1,136.42,64c1.58-6.58,6.66-13.18,11.4-15.81A25.34,25.34,0,0,1,158.44,45a18.28,18.28,0,0,0-5.05,2.71c-1.86,1.39-6.09,4.77-8.69,13C141.88,69.73,143.58,83.61,143.58,83.61Z" style="fill: rgb(69, 90, 100); transform-origin: 146.673px 64.305px;" id="elk97fijq02k" class="animable"></path><path d="M151.85,101c2.43-7.29.34-17.9-4.67-23.66a11.12,11.12,0,0,0-4.72-3.4,6.5,6.5,0,0,0-3.52-.25l-3.94.8c-2.68.57-4.94,2.91-6.18,6.63-2.43,7.29-.34,17.9,4.67,23.66a11.09,11.09,0,0,0,4.72,3.4,6.6,6.6,0,0,0,3.55.25l3.89-.8C148.34,107,150.61,104.69,151.85,101Z" style="fill: rgb(55, 71, 79); transform-origin: 140.335px 91.0602px;" id="elwlje1jdfifi" class="animable"></path><path d="M138.21,108.14a11.09,11.09,0,0,1-4.72-3.4c-5-5.76-7.1-16.37-4.67-23.66,1.76-5.28,5.58-7.78,9.73-6.38a11.15,11.15,0,0,1,4.72,3.41c5,5.75,7.1,16.37,4.67,23.65C146.18,107.05,142.36,109.55,138.21,108.14Z" style="fill: rgb(38, 50, 56); transform-origin: 138.38px 91.4223px;" id="elm1f9ydikvp8" class="animable"></path><path d="M147.14,101.49c2.34-7,.33-17.25-4.51-22.81-2.42-2.79-5.08-3.87-7.44-3.38l-1.94.4c-2.36.48-4.4,2.54-5.58,6.06-2.35,7-.33,17.25,4.5,22.81,2.42,2.78,5.09,3.87,7.44,3.38l2-.4C143.92,107.07,146,105,147.14,101.49Z" style="fill: rgb(240, 240, 240); transform-origin: 137.403px 91.6247px;" id="elytkl3aqupco" class="animable"></path><path d="M140.68,79.08c4.83,5.56,6.85,15.77,4.5,22.81s-8.17,8.24-13,2.68-6.85-15.77-4.5-22.81S135.84,73.52,140.68,79.08Z" style="fill: rgb(224, 224, 224); transform-origin: 136.43px 91.825px;" id="elpjaabisafgm" class="animable"></path><path d="M145.18,101.89c2.35-7,.33-17.25-4.5-22.81-2.42-2.78-5.08-3.87-7.43-3.38-.66.13-1.87.47-2.53.6-2.35.49-4.39,2.54-5.56,6.06-2.35,7-.33,17.25,4.5,22.81,2.42,2.78,5.08,3.87,7.43,3.39.66-.14,1.87-.47,2.52-.61C142,107.47,144,105.41,145.18,101.89Z" style="fill: rgb(0, 255, 136); transform-origin: 135.17px 92.128px;" id="eln4op13ky2" class="animable"></path><g id="elyxfhh0hwbn"><path d="M138.17,79.68c4.83,5.56,6.85,15.77,4.5,22.81s-8.17,8.24-13,2.68-6.85-15.77-4.5-22.81S133.33,74.12,138.17,79.68Z" style="fill: rgb(255, 255, 255); opacity: 0.15; transform-origin: 133.92px 92.425px;" class="animable"></path></g><path d="M134.73,86.26a13.61,13.61,0,0,1,2.36,12c-1.23,3.7-4.29,4.33-6.83,1.41a13.6,13.6,0,0,1-2.36-12C129.13,84,132.19,83.34,134.73,86.26Z" style="fill: rgb(38, 50, 56); transform-origin: 132.494px 92.9696px;" id="elp5ulajqe1bm" class="animable"></path><path d="M136.71,90.74,132.19,93l-1.67-8.47c1.24-.26,2.64.31,3.91,1.77A11.89,11.89,0,0,1,136.71,90.74Z" style="fill: rgb(69, 90, 100); transform-origin: 133.615px 88.7346px;" id="ellz4m6ke2qsq" class="animable"></path><path d="M136.79,98.31c-.61,1.84-1.69,2.93-2.92,3.18L132.19,93l4.52-2.28A13.2,13.2,0,0,1,136.79,98.31Z" style="fill: rgb(55, 71, 79); transform-origin: 134.749px 96.105px;" id="elt8zlk5fr1y" class="animable"></path><path d="M133.87,101.49c-1.24.25-2.64-.32-3.91-1.78a11.76,11.76,0,0,1-2.29-4.42L132.19,93Z" style="fill: rgb(69, 90, 100); transform-origin: 130.77px 97.2735px;" id="elyd807pmymf9" class="animable"></path><path d="M132.19,93l-4.52,2.27a13.34,13.34,0,0,1-.08-7.56c.62-1.85,1.7-2.93,2.93-3.18Z" style="fill: rgb(55, 71, 79); transform-origin: 129.636px 89.9px;" id="ellwu46uani9i" class="animable"></path><path d="M146.36,128.57c-1,5.09,6.56,21,11.46,36.55s6.58,31.35,6.1,52.64-2,53-2,53-34.38-8.09-42.75-22.57c1.82-8.72,6.28-21.26,7.94-26.63s2.27-10.61.72-15.87-8-21.89-8.61-35.29,4.42-33.62,4.42-33.62,11-2.75,15.19-3.7S145.31,131.5,146.36,128.57Z" style="fill: rgb(0, 255, 136); transform-origin: 141.584px 199.665px;" id="el0mq73tbk9kjd" class="animable"></path><path d="M175.14,127.22a7.82,7.82,0,0,0,1,4.06c.75,1.49,16.63,16.63,23.87,26.84s11.15,20.07,11.43,32.23.56,67.53.56,67.53,6.68-2.23,11.33-12.63c-.47-9.2-4.57-23.17-5.5-31.63a133.1,133.1,0,0,1-.5-17.78,23.45,23.45,0,0,0,7.58-15.15c.78-10.69-2.23-18.57-9.48-27.58s-18.83-21.21-28.86-24.83C181.91,128.55,176,128.74,175.14,127.22Z" style="fill: rgb(0, 255, 136); transform-origin: 200.083px 192.55px;" id="elkinrbxibmo" class="animable"></path><g id="freepik--Arm--inject-250" class="animable" style="transform-origin: 146.35px 196.726px;"><path d="M87,228c.31,9.2,1.78,10.68,12.06,15.46s36.05,11.77,56.29,12.95c3,.17,6,.29,9.07.27a71.63,71.63,0,0,0,14.17-1.52c6.61-1.39,11-2.44,16.78-6.08a12.25,12.25,0,0,0,4.72-4.7c.68-1.4.92-3,1.62-4.37s1.81-2.53,1.86-4a7.15,7.15,0,0,1,.05-2.12c.29-.78,1.13-1.2,1.71-1.81a3.31,3.31,0,0,0,.32-4,5.47,5.47,0,0,0-3.6-1.93,2.3,2.3,0,0,1-1-.35,4.43,4.43,0,0,1-.64-.79,3.08,3.08,0,0,0-2.36-1,8,8,0,0,0-2.59.49c-3.39,1.08-6.62,2.67-10,3.73a22.19,22.19,0,0,1-5.86,1.29,12.35,12.35,0,0,1-2.85,0c-1.53-.19-2.48-1.07-2-2.71.92-2.85,2.83-5.46,3.11-8.47a7.29,7.29,0,0,0-.25-3.25c-.18-.47-1.15-2.09-1.84-1.88-1.77.53-2.65,2.88-7.92,8.54-4,4.3-8,9.82-14.53,9.53-11.2-.49-34.54-11.44-34.54-11.44L117,208.24Z" style="fill: rgb(255, 168, 167); transform-origin: 146.588px 232.461px;" id="el95dnffww2s" class="animable"></path><path d="M119.92,218.71l14.59-36.27s3.7-28.78-10.9-45.67c-13.62,2.94-17,12.07-22.36,30.11C93.94,191.52,87.63,215.75,86.54,228c-.17,5.75.95,8.72,3.7,11.08s13.84,7.09,20.62,9.17,24.54,6.16,27.93,6.66c-1.93-4.75-1.92-12.44,0-17.38a15.26,15.26,0,0,1,7.29-7.61Z" style="fill: rgb(55, 71, 79); transform-origin: 116.302px 195.84px;" id="elu8viuh9miqe" class="animable"></path><path d="M199.05,241.42a39.07,39.07,0,0,1-5.22,2.94c-1.78.89-3.67,1.57-5.49,2.48a23,23,0,0,0,5.81-1.81A14.82,14.82,0,0,0,199.05,241.42Z" style="fill: rgb(242, 143, 143); transform-origin: 193.695px 244.13px;" id="elguzun0v6v3g" class="animable"></path><path d="M183.06,236.92a67.3,67.3,0,0,0,9.13-3.89c2.83-1.36,5.57-2.93,8.31-4.45,0,0,.08.06.05.08a39.43,39.43,0,0,1-8.64,5.35,58.17,58.17,0,0,1-8.81,3S183,236.93,183.06,236.92Z" style="fill: rgb(242, 143, 143); transform-origin: 191.799px 232.795px;" id="el3n0c1ls5t8l" class="animable"></path><path d="M183.92,243.25a69.15,69.15,0,0,0,9.13-3.89c1.13-.55,2.39-1.23,4.31-2.24A35.39,35.39,0,0,0,202.3,234a3.62,3.62,0,0,1,.86-.53c0,.15-.1.28-.21.38a26.9,26.9,0,0,1-6.22,4.46c-1.3.73-2.61,1.44-4,2.07a55.8,55.8,0,0,1-8.82,3S183.89,243.26,183.92,243.25Z" style="fill: rgb(242, 143, 143); transform-origin: 193.532px 238.425px;" id="el75b4zlqe7bh" class="animable"></path></g><path d="M203.63,107.4a5.28,5.28,0,0,1-5.46,4.33,10.14,10.14,0,0,1-1.3-.12l.13-.76c3.48.58,5.49-1.45,5.88-3.58.42-2.34-.93-5.17-4.64-6.69,0-.27.06-.52.09-.81C202.61,101.43,204.13,104.7,203.63,107.4Z" style="fill: rgb(55, 71, 79); transform-origin: 200.296px 105.753px;" id="elpmz9guywv0q" class="animable"></path><path d="M195.13,113.57l-3.28-.69a2.59,2.59,0,0,1-2-3.08h0a2.59,2.59,0,0,1,3.08-2l3.27.69a2.59,2.59,0,0,1,2,3.08h0A2.58,2.58,0,0,1,195.13,113.57Z" style="fill: rgb(38, 50, 56); transform-origin: 194.025px 110.685px;" id="elinqrb13andh" class="animable"></path></g></g></g><g id="freepik--character-2--inject-250" class="animable" style="transform-origin: 385.973px 268.402px;"><g id="freepik--character--inject-250" class="animable" style="transform-origin: 385.973px 268.402px;"><g id="freepik--bottom--inject-250" class="animable" style="transform-origin: 409.114px 332.005px;"><path d="M382.64,356.94c.4,11.2.68,22.11.5,28.68,0,.61,4.55,3.37,8.85,2.66s5.43-2.18,5.43-2.61c0-1.52,1.48-3.69,1.56-5.2a186,186,0,0,1,2.8-23.53Z" style="fill: rgb(255, 189, 167); transform-origin: 392.21px 372.668px;" id="elaiv0vxi71do" class="animable"></path><path d="M450.17,362l-19.62-1.59c2.05,9.47,4.21,19.3,5.78,25.95a35.27,35.27,0,0,0,1.77,5.86c.93,4.28,11.55,4.8,13.67-2l-.46-5.84C451.05,378.93,450.55,370,450.17,362Z" style="fill: rgb(255, 189, 167); transform-origin: 441.16px 377.902px;" id="elanvzn8d0dro" class="animable"></path><path d="M361.74,406.72c-.27,0-.47,2.94,1.09,4.06,1.8,1.31,6.95,3.29,13.47,2s8.26-2.68,10.74-5,4.73-4.72,7.66-5.57c2.72-.78,6.85-2.14,7.68-3s.43-4.56.43-4.56Z" style="fill: rgb(38, 50, 56); transform-origin: 382.23px 403.925px;" id="elm7xflp4qko" class="animable"></path><path d="M399.12,378.86a1.19,1.19,0,0,1,1.18.8c.27,1,.71,3.94,1.26,5.57a40.59,40.59,0,0,1,1.22,10.69c-.23,1.91-5.86,3.47-8.66,4.73a27.67,27.67,0,0,0-7.7,5.49,20.51,20.51,0,0,1-11.84,5.15c-5.07.32-10.9-.88-12.38-3.07-1.82-2.71-2.26-5.4,5-9.3,1.38-.73,5.59-3.53,7.22-4.69a32.75,32.75,0,0,0,4.95-4.22,24.78,24.78,0,0,0,1.79-2.05,6.07,6.07,0,0,0,.89-2.13c.35-1.37.05-2.82.18-4.23a.8.8,0,0,1,.11-.37.78.78,0,0,1,.32-.21,9.14,9.14,0,0,1,3.68-.44,15.22,15.22,0,0,1,3.77.56,3.11,3.11,0,0,1,1.78.93,2.54,2.54,0,0,1,.43,1.34,11,11,0,0,0,.14,1.41.8.8,0,0,0,.24.45c.27.23.66,0,.87-.2a19.69,19.69,0,0,0,1.85-2.5c.32-.45,1.9-.83,2.32-1.2a13,13,0,0,0,1.23-.9C399.41,380,399.14,379.45,399.12,378.86Z" style="fill: rgb(55, 71, 79); transform-origin: 381.927px 395.1px;" id="elnzlynuz5bll" class="animable"></path><path d="M386.42,406.14a36.92,36.92,0,0,1,3.31-2.83h0s-7.8,3.62-11.54,1.5c-2.42-1.36-1.46-3.29-1.45-3.89s-5.85-2.73-8.11-2.84h0c-.6.38-1.1.68-1.42.85-7.27,3.9-6.83,6.59-5,9.3,1.48,2.19,5.75,3.68,12.3,3.23A21.19,21.19,0,0,0,386.42,406.14Z" style="fill: rgb(69, 90, 100); transform-origin: 375.399px 404.81px;" id="elvwpph4czcn" class="animable"></path><path d="M377.24,399.15c-4.55,2.13-2.49,2.84-1.17,2.93s7.66-4,12.19-8.06c4.73-4.18,8.8-8.54,10.55-10.08.66-.57,1.36-1.27,2-1.92-.2-1-.36-1.89-.49-2.36-.24-.84-1.3-1-1.3-1l0,1.82a3.58,3.58,0,0,1-1.31.77,6,6,0,0,0-2.24,1.33,19.69,19.69,0,0,1-1.85,2.5C389.86,390.37,381.78,397,377.24,399.15Z" style="fill: rgb(38, 50, 56); transform-origin: 387.626px 390.371px;" id="elno2yorqfmvd" class="animable"></path><path d="M376.35,401.39a.4.4,0,0,0,.29-.12.43.43,0,0,0,0-.63,11.4,11.4,0,0,0-8.81-2.69.44.44,0,0,0-.37.52.44.44,0,0,0,.53.36,10.56,10.56,0,0,1,8,2.42A.48.48,0,0,0,376.35,401.39Z" style="fill: rgb(240, 240, 240); transform-origin: 372.115px 399.63px;" id="elw1jni434a1j" class="animable"></path><path d="M380.28,398.88a.42.42,0,0,0,.29-.12.44.44,0,0,0,0-.63,11.34,11.34,0,0,0-8.74-2.88.46.46,0,0,0-.39.51.47.47,0,0,0,.53.38,10.56,10.56,0,0,1,7.91,2.59A.44.44,0,0,0,380.28,398.88Z" style="fill: rgb(240, 240, 240); transform-origin: 376.07px 397.039px;" id="elb03tlqwmm2h" class="animable"></path><path d="M383.87,396.08a.53.53,0,0,0,.29-.12.46.46,0,0,0,0-.64,11.4,11.4,0,0,0-8.81-2.68.45.45,0,0,0-.38.52.47.47,0,0,0,.54.37,10.53,10.53,0,0,1,8,2.41A.48.48,0,0,0,383.87,396.08Z" style="fill: rgb(240, 240, 240); transform-origin: 379.627px 394.319px;" id="eln2dishkkuxr" class="animable"></path><path d="M387,393.56a.55.55,0,0,0,.29-.11.46.46,0,0,0,.05-.64,11.41,11.41,0,0,0-8.69-3,.46.46,0,0,0-.4.5.47.47,0,0,0,.53.39,10.54,10.54,0,0,1,7.85,2.74A.49.49,0,0,0,387,393.56Z" style="fill: rgb(240, 240, 240); transform-origin: 382.847px 391.667px;" id="el1bc5z0tk78a" class="animable"></path><path d="M390.43,390.61a.49.49,0,0,0,.28-.11.44.44,0,0,0,.06-.63c-1.9-2.17-6.06-3.51-9.49-3a.45.45,0,0,0-.4.51.47.47,0,0,0,.53.38c3.09-.43,7,.79,8.65,2.72A.47.47,0,0,0,390.43,390.61Z" style="fill: rgb(240, 240, 240); transform-origin: 385.876px 388.687px;" id="eluw8nvx3q8gr" class="animable"></path><path d="M438.22,415.48c.33,4.42,1.08,7.34,2.74,9.91s4.73,3.35,7.81,2.55,7-2.89,7.85-6.72.62-6.43-.14-10.53Z" style="fill: rgb(38, 50, 56); transform-origin: 447.691px 419.465px;" id="eljckjva2qure" class="animable"></path><path d="M451.31,384.3c1.09.32,1.44,6.37,2.26,12.31.88,6.36,2.07,8.27,2.85,13.48.89,6,.48,8-1.62,11.6s-9.71,7.28-13.55,2.17c-3.13-4.18-3.2-8.18-3-14.15a120.31,120.31,0,0,0-.25-14.2c-.31-4.46-2.76-8.68-1.66-9.19-.2.09.73,3.08.81,3.34a5.5,5.5,0,0,0,.69,1.64c.61.83.89-.53.88-1.05,0-.88-.33-1.58.37-2.33a5.64,5.64,0,0,1,1.89-1.08,12.55,12.55,0,0,1,2.32-.67,25.18,25.18,0,0,1,4.91-.33,2.4,2.4,0,0,1,1.91.74,1.29,1.29,0,0,1,.19.47c.13.58.07,1.18.2,1.77,0,.16.11.58.28.68s.42.05.43-.07S451.45,385.34,451.31,384.3Z" style="fill: rgb(55, 71, 79); transform-origin: 446.46px 405.338px;" id="eluwgd7pdjd4" class="animable"></path><path d="M456.13,408.05c.13.86.83,6.23-.76,7.28s-2.74-3.33-2.74-3.33-4.08-1.16-10,1.43c.32.92-.55,4-2.19,3.36s-2.23-6.48-2.24-6.56c-.17,5.72,0,9.57,3,13.63,3.84,5.11,11.44,1.47,13.55-2.17s2.51-5.64,1.62-11.6C456.33,409.5,456.25,408.59,456.13,408.05Z" style="fill: rgb(69, 90, 100); transform-origin: 447.485px 417.218px;" id="elou90xfhw03i" class="animable"></path><path d="M452.17,412.39c.06,2.15,2,1.38,2.3-1.65.39-4.56-.84-8.89-.9-14.13-.82-5.94-1-12.23-2.26-12.31.07,1-.1,5.13-.1,5.13.46,4.45,1.74,9.63,1.62,14.22C452.73,407.69,452.12,410.23,452.17,412.39Z" style="fill: rgb(38, 50, 56); transform-origin: 452.878px 398.956px;" id="elpb58m7am2d" class="animable"></path><path d="M443.35,413.36c-.45-2.11-1.17-2.7-1.67-6.72s-2.89-11.18-3.82-15.51c-.26-1.35-1.52-4.77-1.53-4.81-.79.38,0,2.87.67,5.55s1.11,4.32,1.55,6.9c1.16,5.12,1.4,10.58,2.17,13.53S443.79,415.48,443.35,413.36Z" style="fill: rgb(38, 50, 56); transform-origin: 439.703px 400.541px;" id="elnml6go0cl5n" class="animable"></path><path d="M442.84,413.48a.49.49,0,0,0,.17-.06,15.56,15.56,0,0,1,9.81-1.11.48.48,0,0,0,.58-.34.46.46,0,0,0-.35-.55,16.17,16.17,0,0,0-10.49,1.2.45.45,0,0,0-.19.62A.49.49,0,0,0,442.84,413.48Z" style="fill: rgb(240, 240, 240); transform-origin: 447.862px 412.259px;" id="eliwr9069aenk" class="animable"></path><path d="M441.49,409.21a.43.43,0,0,0,.16,0c.05,0,5.68-2.62,11.45-1.41a.46.46,0,1,0,.2-.9,21.3,21.3,0,0,0-12.07,1.49.46.46,0,0,0-.21.62A.48.48,0,0,0,441.49,409.21Z" style="fill: rgb(240, 240, 240); transform-origin: 447.316px 407.911px;" id="elpi0dsxa2ij" class="animable"></path><path d="M453.7,404.24a.47.47,0,0,0,.4-.32.46.46,0,0,0-.31-.57c-5.74-1.8-13.22.89-13.46,1a.45.45,0,0,0-.19.62.49.49,0,0,0,.64.19c.05,0,7.37-2.63,12.72-.95A.68.68,0,0,0,453.7,404.24Z" style="fill: rgb(240, 240, 240); transform-origin: 447.101px 403.971px;" id="elwl2yw6oy03b" class="animable"></path><path d="M452.72,400.38a.46.46,0,0,0,.1-.89c-6.32-2.09-12.73,1.33-12.95,1.46a.45.45,0,0,0-.15.64.48.48,0,0,0,.65.14c.05,0,6.26-3.32,12.14-1.37A.5.5,0,0,0,452.72,400.38Z" style="fill: rgb(240, 240, 240); transform-origin: 446.385px 400.308px;" id="eliq600m8btak" class="animable"></path><path d="M452.26,395.67a.45.45,0,0,0,.11-.88c-5.92-2.06-12.79,1.45-13,1.59a.45.45,0,0,0-.16.62.47.47,0,0,0,.65.16c.05,0,6.73-3.42,12.23-1.51A.5.5,0,0,0,452.26,395.67Z" style="fill: rgb(235, 235, 235); transform-origin: 445.918px 395.687px;" id="el7uanpg1zoln" class="animable"></path><path d="M410.2,285.65l-4.88,28.58a87,87,0,0,1,1.07,16.8c-.42,8.25-4.25,32.11-6.11,40.86a19.36,19.36,0,0,1-18.48.43s-1.85-48.13-2.61-59.7,1-58.5,1.62-76.85l58.09.17s1.15,9.87,2.18,24.61,3.4,54.27,3.4,54.27c6.3,17.54,5.71,29.05,6.82,61.82a18.06,18.06,0,0,1-17.23,1.94s-9.15-32.18-12.67-45.24c-1.68-6.23-7.79-33.31-11.2-47.69" style="fill: rgb(0, 255, 136); transform-origin: 415.151px 307.848px;" id="el5jmai7mzrmo" class="animable"></path><g id="eld9912m9i2v"><path d="M410.2,285.65l-4.88,28.58a87,87,0,0,1,1.07,16.8c-.42,8.25-4.25,32.11-6.11,40.86a19.36,19.36,0,0,1-18.48.43s-1.85-48.13-2.61-59.7,1-58.5,1.62-76.85l58.09.17s1.15,9.87,2.18,24.61,3.4,54.27,3.4,54.27c6.3,17.54,5.71,29.05,6.82,61.82a18.06,18.06,0,0,1-17.23,1.94s-9.15-32.18-12.67-45.24c-1.68-6.23-7.79-33.31-11.2-47.69" style="fill: rgb(255, 255, 255); opacity: 0.6; transform-origin: 415.151px 307.848px;" class="animable"></path></g><g id="elc6gc4ydrfm5"><path d="M386,264.4l-1.67,22.5c-.1,3.6-.93,11.47-1,15.06s-.19,7.19,0,10.73,1.94,32.7,1.65,39.91c-1.1-8-2.91-32.6-3.37-39.84-.18-7.28.68-15.51,1.67-25.95S385,271.54,386,264.4Z" style="fill: rgb(0, 255, 136); opacity: 0.6; transform-origin: 383.793px 308.5px;" class="animable"></path></g><g id="el9tghx4knplr"><path d="M420.39,260.55c2.91,11.8,7.7,42.3,8.79,50.47s9.12,40.34,9.94,48.57c-1.49-8.15-10.48-40.15-11.65-48.36S422.21,275.49,420.39,260.55Z" style="fill: rgb(0, 255, 136); opacity: 0.6; transform-origin: 429.755px 310.07px;" class="animable"></path></g><g id="eled3ajekiqy"><path d="M405.22,263.3l5,22.35-4.88,28.58,2-23.9-5.41-24.44S391.78,263,389.14,253C394.31,261,405.22,263.3,405.22,263.3Z" style="fill: rgb(0, 255, 136); opacity: 0.6; transform-origin: 399.68px 283.615px;" class="animable"></path></g></g><g id="freepik--top--inject-250" class="animable" style="transform-origin: 385.973px 178.656px;"><path d="M375.93,211.66c8-10.86,14.55-21.72,14.55-21.72L389.28,164s-4.9-1.41-12.27,10.86c-4.43,7.38-14.44,22.55-14.44,22.55s-17.83-9.89-19.72-11.32a23.7,23.7,0,0,1-3.85-3.94c-3.21-4-6.76-5.32-11.41-7.13l-2.4-.91a8.16,8.16,0,0,1-1.15-.47c-.34-.18-.64-.32-1,0a1.45,1.45,0,0,0-.33,1,4.15,4.15,0,0,0,1.47,3,20.34,20.34,0,0,0,2.84,2c.74.49-.21.83-.68.93-2.33.48-5.87-.8-8.06-1.58a31.66,31.66,0,0,0-4.3-1.58,4.69,4.69,0,0,0-2.8.23c-.59.26-1,.71-.64,1.41a3.43,3.43,0,0,0,1.13,1,3.45,3.45,0,0,1,1.85,2.16,8,8,0,0,0,.46,2c.39.78,1.2,1.28,1.68,2a18.83,18.83,0,0,1,.75,2.1,6.54,6.54,0,0,0,2,1.77,21.18,21.18,0,0,0,4.91,2.54,41,41,0,0,0,8.19,1.92,14.87,14.87,0,0,1,5.32,2.37c1.48,1.12,5.49,5,6.64,6.13,1.42,1.36,9.27,9.5,16,13.42C367.08,220.94,369.4,220.53,375.93,211.66Z" style="fill: rgb(255, 189, 167); transform-origin: 350.443px 191.606px;" id="elwvn3x5lqpkm" class="animable"></path><path d="M362.57,197.44a13.21,13.21,0,0,1,6.81,7.72c-.43-3.14-.88-6.69-5.78-9.28Z" style="fill: rgb(240, 153, 122); transform-origin: 365.975px 200.52px;" id="elpw2lohljqon" class="animable"></path><path d="M329.35,181.84a10.32,10.32,0,0,0,5.52,7.67,5,5,0,0,1-4.26-2.34C329,184.68,329.05,183,329.35,181.84Z" style="fill: rgb(240, 153, 122); transform-origin: 332.027px 185.675px;" id="el8vf770toyt7" class="animable"></path><path d="M389.77,162.86a18.79,18.79,0,0,0-8.68,5.42c-2.41,2.58-6.67,9.86-9.21,13.91s-5.27,8.31-5.27,8.31.66,10.53,13.77,15.6l10.81-15.82Z" style="fill: rgb(0, 255, 136); transform-origin: 378.9px 184.48px;" id="eld9oz884aerg" class="animable"></path><g id="freepik--chest--inject-250" class="animable" style="transform-origin: 411.184px 204.126px;"><path id="freepik--chest--inject-250" d="M420.59,159.75c9,2,11.72,2.86,16,3.83,0,0,8.85,8.18,3.65,37.49a124.36,124.36,0,0,0-1.4,21.61c.14,6.51.41,13.58.57,18,0,0-10,9.83-35.24,7.45-19.78-1.88-23.68-9.09-23.68-9.09s.66-27.24.66-42.32c0-24.08,3.21-29.6,8.59-33.88.7-.43,14.08-2.66,14.08-2.66Z" style="fill: rgb(38, 50, 56); transform-origin: 411.184px 204.126px;" class="animable"></path></g><g id="freepik--head--inject-250" class="animable" style="transform-origin: 410.418px 138.988px;"><path d="M406.87,111.18c9.79-1.38,16.29,2.93,19.87,8.27,4.05.38,6.1,3.79,6.36,7.83.9,13.61-10.47,19.78-12.67,26.24l-29.67-26.35C390.57,122.32,394,113,406.87,111.18Z" style="fill: rgb(55, 71, 79); transform-origin: 411.952px 132.22px;" id="elijjz5so9qza" class="animable"></path><path d="M431.9,117.84l-5.49,1.68a3,3,0,0,0,3.71,1.88A2.72,2.72,0,0,0,431.9,117.84Z" style="fill: rgb(55, 71, 79); transform-origin: 429.241px 119.686px;" id="elujpu3bjg8o" class="animable"></path><path d="M427.65,114.12l-1.25,5.48a3,3,0,0,0,3.51-2.19A2.74,2.74,0,0,0,427.65,114.12Z" style="fill: rgb(55, 71, 79); transform-origin: 428.186px 116.891px;" id="elu5z4wti99ak" class="animable"></path><path d="M426.51,119.11c-3.58-5.35-9.85-9.31-19.64-7.93-12.91,1.82-16.3,11.14-16.11,16l6.42,5.54L409.75,124C411.71,120.81,422.53,118.37,426.51,119.11Z" style="fill: rgb(38, 50, 56); transform-origin: 408.631px 121.812px;" id="elli44gombem" class="animable"></path><path d="M409.75,124c1.3-.88,3.13-1.25,5.45.51a7,7,0,0,1,2.22,3.35c.54,1.75.53,2.39.63,5.24.07,1.94.89,6.49,4,5.22.93-.38,1.46-1.29,2.28-1.8,2.57-1.6,6-.86,7.13,2a7.23,7.23,0,0,1-3.44,9.09c-4.33,1.93-5.79-.53-5.79-.53l-.13,15.34c-3,4.68-10.08,7.75-16.86,6.83s-5-4.29-2.45-6.8l0-5.95a19.51,19.51,0,0,1-5.6-.87c-4.11-1.41-5.83-5.32-6.45-9.29-.71-4.55-.16-11.76.44-16.46a31.8,31.8,0,0,1,.8-3.82C395.6,121.61,407,118.57,409.75,124Z" style="fill: rgb(255, 189, 167); transform-origin: 411.184px 145.252px;" id="els5sesevz78i" class="animable"></path><polygon points="403.56 131.79 401.35 142.79 395.97 140.23 403.56 131.79" style="fill: rgb(240, 153, 122); transform-origin: 399.765px 137.29px;" id="el0qm9ry62bfpg" class="animable"></polygon><path d="M407.14,144.48l-5.93,1.67a3.05,3.05,0,0,0,3.77,2.18A3.15,3.15,0,0,0,407.14,144.48Z" style="fill: rgb(177, 102, 104); transform-origin: 404.23px 146.461px;" id="el3id72wo6jtb" class="animable"></path><path d="M405,148.33l-.38.06a2.76,2.76,0,0,1,2.63-2.84A3.14,3.14,0,0,1,405,148.33Z" style="fill: rgb(242, 143, 143); transform-origin: 405.934px 146.97px;" id="el84zt3upgsgo" class="animable"></path><path d="M397.33,132.19a5.16,5.16,0,0,0-1.32-.51,4,4,0,0,0-1.38-.11,4.49,4.49,0,0,0-1.42.36s-.06.11,0,.11c.38,0,.72-.08,1.26-.08l.43,0a1.93,1.93,0,0,0-.76.9c-.36.93.3,1.26,1.22,1.6s1.74.57,2.11-.36a1.77,1.77,0,0,0,0-1.41l.31.16c.18.09.52.29.56.32s.09-.1.07-.14A3.11,3.11,0,0,0,397.33,132.19Z" style="fill: rgb(38, 50, 56); transform-origin: 395.799px 133.155px;" id="elvgnf85mpqv" class="animable"></path><path d="M411.75,133.54c.06,0,0-.09,0-.11a4.21,4.21,0,0,0-1.31-.65,3.72,3.72,0,0,0-1.37-.18,4.75,4.75,0,0,0-1.4.21,3.14,3.14,0,0,0-1.2.63s0,.18.05.15.42-.14.61-.2l.34-.08a1.76,1.76,0,0,0-.35,1.36c.16,1,1,1,2,.81s1.69-.32,1.54-1.31a1.86,1.86,0,0,0-.55-1,2.68,2.68,0,0,1,.43.05C411.07,133.31,411.39,133.43,411.75,133.54Z" style="fill: rgb(38, 50, 56); transform-origin: 409.123px 134.086px;" id="ely73dcaaqhrn" class="animable"></path><path d="M409,128.68l3.34,2.29a2.07,2.07,0,0,0-.54-2.84A2,2,0,0,0,409,128.68Z" style="fill: rgb(38, 50, 56); transform-origin: 410.842px 129.375px;" id="elvcar97dndl" class="animable"></path><path d="M402.86,156.49a37.44,37.44,0,0,0,9.05-1.17c3.5-1.14,5.06-2.11,7-6A9.48,9.48,0,0,1,416,155c-4.23,3.53-13.18,3.45-13.18,3.45Z" style="fill: rgb(240, 153, 122); transform-origin: 410.865px 153.885px;" id="elxdk1wf3g92" class="animable"></path><path d="M409.75,124c.56-1-.07-2.84-.87-3.52a4.52,4.52,0,0,0-3.65-.63c-1.87.55-2.45,2.52-3.07,4.1a10.9,10.9,0,0,1-1.51,3A5.23,5.23,0,0,1,396,129.3a4.81,4.81,0,0,0,1.59-4C396,127,392.9,129,390.5,129.21c-1.66.18-2.42-.63-2.68-2.21-.69-4.14,1.35-8.91,4.34-11.82a13.26,13.26,0,0,1,1.27-1.09c6.09-4.53,15.67-6.24,23.4-5.26,4.34.55,10.48,4.21,9.68,10.28C422.51,118.48,411.62,120.76,409.75,124Z" style="fill: rgb(55, 71, 79); transform-origin: 407.133px 118.935px;" id="elar8jqhsxyge" class="animable"></path></g><g id="freepik--Tablet--inject-250" class="animable" style="transform-origin: 408.339px 206.165px;"><path d="M355.52,201.19h0l1.41-1.32h0a1.67,1.67,0,0,1,1.5-.22L402,209.75a5.83,5.83,0,0,1,3.7,3.18l12.71,32.44a1.51,1.51,0,0,1-.14,1.69h0l-1.46,1.36v0a1.62,1.62,0,0,1-1.51.24l-43.54-10.08a5.83,5.83,0,0,1-3.7-3.18c-2.49-6.38-10.22-26.07-12.71-32.44C355,202.14,355.11,201.52,355.52,201.19Z" style="fill: rgb(69, 90, 100); transform-origin: 386.873px 224.156px;" id="elsystkqv5crf" class="animable"></path><path d="M402.3,211.91a5.74,5.74,0,0,1,1.93,2.35L417,246.68a1.57,1.57,0,0,1-.09,1.66l1.37-1.27,0,0a1.47,1.47,0,0,0,.15-1.68l-12.72-32.45a5.6,5.6,0,0,0-1.78-2.22Z" style="fill: rgb(38, 50, 56); transform-origin: 410.463px 229.53px;" id="elpybmkk0dx" class="animable"></path><path d="M416.94,246.69l-12.71-32.44a5.84,5.84,0,0,0-3.69-3.18L357,201c-1.48-.34-2.24.53-1.68,1.95,2.49,6.37,10.22,26.06,12.71,32.44a5.83,5.83,0,0,0,3.7,3.18l43.54,10.08C416.75,249,417.5,248.11,416.94,246.69Z" style="fill: rgb(55, 71, 79); transform-origin: 386.131px 224.826px;" id="el6wl37v19jf6" class="animable"></path><path d="M404.49,221.15l-2.38-6.07a1.16,1.16,0,0,0-.7-.6l-3-.68c-.28-.07-.42.1-.32.36l2.38,6.07a1.14,1.14,0,0,0,.69.6l3,.69C404.45,221.58,404.59,221.42,404.49,221.15Z" style="fill: rgb(69, 90, 100); transform-origin: 401.29px 217.658px;" id="elep1mw9zemcq" class="animable"></path><path d="M402,216.56a2.74,2.74,0,0,0-1.76-1.47c-.72-.16-1.09.23-.84.87a2.74,2.74,0,0,0,1.76,1.47C401.9,217.59,402.27,217.2,402,216.56Z" style="fill: rgb(38, 50, 56); transform-origin: 400.705px 216.26px;" id="elzfomfhqzvxa" class="animable"></path><path d="M403.18,219.62a2.73,2.73,0,0,0-1.76-1.46c-.72-.17-1.09.22-.84.87a2.75,2.75,0,0,0,1.76,1.46C403.06,220.66,403.43,220.27,403.18,219.62Z" style="fill: rgb(38, 50, 56); transform-origin: 401.88px 219.325px;" id="elbavr9i666lh" class="animable"></path><path d="M411.38,227.55l.68,1.73a42.87,42.87,0,0,1-7.54,1.23c-.86,0-4.09-1.52-6.72-2.2s-4.33.89-3,1.94a17.65,17.65,0,0,0,2.3,1.6c-1.11,1.1-1.87,2.13.35,4a2.94,2.94,0,0,0,.95,3.27,28,28,0,0,0,7.42,4.7c1.44.55,9,.06,9.61-.28a44.48,44.48,0,0,0,5.72-4,43.6,43.6,0,0,1,7.62-4.21c2.3-.76,22.73-9.21,26.33-11.05s9.43-5.79,4.54-9.63-12.41-6.15-18.29-2.34c-4.28,2.77-15.07,8.76-19.9,11.61a6,6,0,0,1-4.35.89,32.19,32.19,0,0,0-6.79.11Z" style="fill: rgb(255, 189, 167); transform-origin: 427.924px 227.214px;" id="el1lnh9dxmcgm" class="animable"></path><path d="M436.82,164c9.34,2.68,12.18,4.35,14.09,9.41,3.11,8.23,10.24,36.39,10.63,43.75.19,3.62-17.25,4.22-17.25,4.22l-2.91-9.1s-6-20.55-7.4-24.9C432.43,182.51,430.64,168.79,436.82,164Z" style="fill: rgb(255, 189, 167); transform-origin: 447.015px 192.69px;" id="elp4eark5yupj" class="animable"></path><path d="M441.38,212.31c3.12-2,9-2.29,12.18-.95-2.31-3-9.33-2.47-12.6-.34Z" style="fill: rgb(240, 153, 122); transform-origin: 447.26px 210.788px;" id="elw10sviyoqkb" class="animable"></path><path d="M397.13,231.85c1.06.61,2.1,1.27,3.13,1.93.52.33,1,.68,1.53,1a1.44,1.44,0,0,0,.71.31c.29,0,.59.07.89.09,2.41.17,4.86.18,7.31.37-1.22.13-2.45.19-3.67.23s-2.45,0-3.68-.05c-.31,0-.62-.06-.94-.12a1.82,1.82,0,0,1-.52-.15,2.76,2.76,0,0,1-.42-.28c-.49-.36-1-.71-1.47-1.08C399,233.38,398.06,232.64,397.13,231.85Z" style="fill: rgb(240, 153, 122); transform-origin: 403.915px 233.823px;" id="elv6tfd3qotni" class="animable"></path><path d="M397.48,235.86c1,.69,2,1.37,3.06,2,.52.32,1,.64,1.56.94.27.14.53.31.79.43a3.45,3.45,0,0,0,.81.19c1.18.15,2.41.18,3.62.25s2.45.09,3.67.23a42.16,42.16,0,0,1-7.37.06,3.47,3.47,0,0,1-1-.25c-.29-.15-.54-.31-.81-.47-.52-.33-1-.66-1.53-1A23.76,23.76,0,0,1,397.48,235.86Z" style="fill: rgb(240, 153, 122); transform-origin: 404.235px 237.976px;" id="eljrobeyujz" class="animable"></path><path d="M400.41,240.73c.83.33,1.64.7,2.47,1a12.37,12.37,0,0,0,2.52.62,19,19,0,0,0,2.62,0,15.08,15.08,0,0,1,2.68.17l-2.66.3a11.16,11.16,0,0,1-2.71,0A11.35,11.35,0,0,1,400.41,240.73Z" style="fill: rgb(240, 153, 122); transform-origin: 405.555px 241.816px;" id="el56g1tp8tooe" class="animable"></path><path d="M436.58,163.58c7.84,2,9.25,3.08,11.84,5.23s3.63,5.77,5.48,12.51,5.25,20.37,5.25,20.37-2.88,3.46-9,4.65a22.93,22.93,0,0,1-10.95-.52s-5.48-17.25-6.44-20.36S429.54,167.65,436.58,163.58Z" style="fill: rgb(0, 255, 136); transform-origin: 445.395px 185.175px;" id="elvddsqtbbeh" class="animable"></path></g></g></g></g><g id="freepik--Plants--inject-250" class="animable" style="transform-origin: 63.9635px 366.038px;"><g id="freepik--plants--inject-250" class="animable" style="transform-origin: 63.9635px 366.038px;"><path d="M48,409.91,36.9,403.48s-6.62-27.52-4-52.28c3.72-34.81,26.63-47.91,35.34-44.91s11.24,13.14-3.18,33.87C56.57,352.39,46.12,377.87,48,409.91Z" style="fill: rgb(0, 255, 136); transform-origin: 53.806px 357.893px;" id="elgvbzgr1noyr" class="animable"></path><g id="el132s99ouez3m"><g style="opacity: 0.65; transform-origin: 53.806px 357.893px;" class="animable"><path d="M48,409.91,36.9,403.48s-6.62-27.52-4-52.28c3.72-34.81,26.63-47.91,35.34-44.91s11.24,13.14-3.18,33.87C56.57,352.39,46.12,377.87,48,409.91Z" style="fill: rgb(255, 255, 255); transform-origin: 53.806px 357.893px;" id="elop3leaydys" class="animable"></path></g></g><path d="M43.41,396.39h.11a.77.77,0,0,0,.61-.9c-6.09-32.11,5.12-68.19,19-83.21a.77.77,0,0,0,0-1.09.78.78,0,0,0-1.09,0c-14.14,15.29-25.58,52-19.39,84.54A.77.77,0,0,0,43.41,396.39Z" style="fill: rgb(255, 255, 255); transform-origin: 52.1423px 353.679px;" id="elyv12dxx4cwa" class="animable"></path><path d="M76,426.08c1.66.84,6.08-2.94,7.31-3.86a15.39,15.39,0,0,0,4.83-6.15,14.46,14.46,0,0,0,.85-8.74,34.92,34.92,0,0,0-1.33-4.56l-1.51-4.41a11.27,11.27,0,0,1-.89-4.48c.24-3.09,2.85-5.37,5.23-7.35,2.63-2.18,5.34-5,5.14-8.71-.16-2.85-1.77-5.41-3.64-7.56s-4.07-4-5.78-6.29a9.09,9.09,0,0,1-2.15-5.63,9.61,9.61,0,0,1,1.07-3.65c1.18-2.46,2.79-4.75,3.56-7.37s.48-5.83-1.63-7.57c-1.73-1.43-4.2-1.52-6.43-1.26a14.51,14.51,0,0,0-5.79,2.37c-5.69,3.55-8.68,10.66-14.77,13.47-2.35,1.09-5,1.43-7.43,2.22s-4.94,2.19-6,4.56c-2,4.67,2.46,10.07,1.1,15-1.2,4.35-5.27,6.2-7.42,10.18a9.12,9.12,0,0,0-.8,5.65,26.82,26.82,0,0,0,2.83,9.35A85.67,85.67,0,0,0,48,409.91S75.77,426,76,426.08Z" style="fill: rgb(0, 255, 136); transform-origin: 67.5085px 382.288px;" id="elo6a0i0tndvd" class="animable"></path><g id="eltb4i7s3905k"><g style="opacity: 0.3; transform-origin: 67.5085px 382.288px;" class="animable"><path d="M76,426.08c1.66.84,6.08-2.94,7.31-3.86a15.39,15.39,0,0,0,4.83-6.15,14.46,14.46,0,0,0,.85-8.74,34.92,34.92,0,0,0-1.33-4.56l-1.51-4.41a11.27,11.27,0,0,1-.89-4.48c.24-3.09,2.85-5.37,5.23-7.35,2.63-2.18,5.34-5,5.14-8.71-.16-2.85-1.77-5.41-3.64-7.56s-4.07-4-5.78-6.29a9.09,9.09,0,0,1-2.15-5.63,9.61,9.61,0,0,1,1.07-3.65c1.18-2.46,2.79-4.75,3.56-7.37s.48-5.83-1.63-7.57c-1.73-1.43-4.2-1.52-6.43-1.26a14.51,14.51,0,0,0-5.79,2.37c-5.69,3.55-8.68,10.66-14.77,13.47-2.35,1.09-5,1.43-7.43,2.22s-4.94,2.19-6,4.56c-2,4.67,2.46,10.07,1.1,15-1.2,4.35-5.27,6.2-7.42,10.18a9.12,9.12,0,0,0-.8,5.65,26.82,26.82,0,0,0,2.83,9.35A85.67,85.67,0,0,0,48,409.91S75.77,426,76,426.08Z" style="fill: rgb(255, 255, 255); transform-origin: 67.5085px 382.288px;" id="eliaamfyw7g5" class="animable"></path></g></g><path d="M59.92,417.68h0a.73.73,0,0,0,.67-.79C58,388,70,355.37,79.42,345.59a.74.74,0,0,0,0-1,.73.73,0,0,0-1,0c-9.64,10-21.91,43.16-19.21,72.45A.73.73,0,0,0,59.92,417.68Z" style="fill: rgb(255, 255, 255); transform-origin: 69.2226px 381.036px;" id="el6gog0h4by9" class="animable"></path><path d="M62.79,382.07a.52.52,0,0,0,.21,0c9.16-3.34,20.72-4.44,20.84-4.45a.73.73,0,0,0,.66-.79.71.71,0,0,0-.8-.66c-.12,0-11.86,1.12-21.2,4.53a.73.73,0,0,0-.43.93A.72.72,0,0,0,62.79,382.07Z" style="fill: rgb(255, 255, 255); transform-origin: 73.2649px 379.122px;" id="ela38gbyedr4r" class="animable"></path></g></g><g id="freepik--speech-bubble--inject-250" class="animable" style="transform-origin: 59.2876px 140.112px;"><g id="freepik--speech-bubble--inject-250" class="animable" style="transform-origin: 59.2876px 140.112px;"><g id="freepik--speech-bubble--inject-250" class="animable" style="transform-origin: 59.2876px 140.112px;"><path d="M70.43,135.34l0-17.58,14.79-1.56a1.41,1.41,0,0,1,.85.18l7.74,4.49a1.39,1.39,0,0,1,.32,2.17l-16,16.79Z" style="fill: rgb(0, 255, 136); transform-origin: 82.4726px 128.011px;" id="elismlfl6itcj" class="animable"></path><path d="M24.06,170.63V131.05a2.73,2.73,0,0,1,1.24-2.14l44.35-25.56a2.72,2.72,0,0,1,2.47,0l6.9,4.07a2.77,2.77,0,0,1,1.23,2.16v39.57A2.74,2.74,0,0,1,79,151.32L34.66,176.87a2.72,2.72,0,0,1-2.47,0l-6.89-4.08A2.77,2.77,0,0,1,24.06,170.63Z" style="fill: rgb(0, 255, 136); transform-origin: 52.155px 140.11px;" id="elmus75t6kwrf" class="animable"></path><g id="elhu5iiuvy16e"><path d="M34.46,177c-.59.23-1-.1-1-.82V136.58a2.61,2.61,0,0,1,.37-1.22l-9.39-5.48a2.49,2.49,0,0,0-.34,1.17v39.58a2.77,2.77,0,0,0,1.24,2.16l6.89,4.07A2.76,2.76,0,0,0,34.46,177Z" style="opacity: 0.15; transform-origin: 29.28px 153.526px;" class="animable"></path></g><path d="M93,120.7,80.25,122V109.6c0-.79-.56-1.11-1.24-.72L34.66,134.43a2.77,2.77,0,0,0-1.24,2.15v39.57c0,.79.56,1.12,1.24.72L79,151.32a2.74,2.74,0,0,0,1.24-2.15v-11.5L94.15,123A1.39,1.39,0,0,0,93,120.7Z" style="fill: rgb(0, 255, 136); transform-origin: 63.9563px 142.877px;" id="el5hztesroxww" class="animable"></path><g id="elg1ozv6yd85k"><path d="M93,120.7,80.25,122V109.6c0-.79-.56-1.11-1.24-.72L34.66,134.43a2.77,2.77,0,0,0-1.24,2.15v39.57c0,.79.56,1.12,1.24.72L79,151.32a2.74,2.74,0,0,0,1.24-2.15v-11.5L94.15,123A1.39,1.39,0,0,0,93,120.7Z" style="fill: rgb(255, 255, 255); opacity: 0.35; transform-origin: 63.9563px 142.877px;" class="animable"></path></g></g><path d="M43.48,145.86a7.31,7.31,0,0,0-3.06,5.84c0,2.25,1.37,3.29,3.06,2.31a7.31,7.31,0,0,0,3.06-5.84C46.54,145.92,45.17,144.88,43.48,145.86Zm14.32-8.28a7.35,7.35,0,0,0-3.06,5.85c0,2.25,1.37,3.29,3.06,2.31a7.31,7.31,0,0,0,3.06-5.84C60.86,137.64,59.49,136.61,57.8,137.58Zm14.33-8.27a7.35,7.35,0,0,0-3.06,5.85c0,2.25,1.37,3.29,3.06,2.31a7.31,7.31,0,0,0,3.06-5.84C75.19,129.37,73.82,128.34,72.13,129.31Z" style="fill: rgb(255, 255, 255); transform-origin: 57.805px 141.662px;" id="ely4uidek1o2" class="animable"></path></g></g><g id="freepik--Target--inject-250" class="animable" style="transform-origin: 292.025px 80.8547px;"><g id="freepik--target--inject-250" class="animable" style="transform-origin: 292.025px 80.8547px;"><g id="freepik--target--inject-250" class="animable" style="transform-origin: 265.445px 75.631px;"><path d="M283,34.72c-5.65-3.27-13.46-2.81-22.08,2.17-17.24,10-31.21,34.16-31.21,54.07,0,10,3.52,17,9.21,20.24,1.48.84,7.45,4.45,8.94,5.31,5.65,3.27,13.45,2.8,22.07-2.18,17.24-10,31.21-34.16,31.21-54.06,0-10-3.49-16.94-9.14-20.2" style="fill: rgb(0, 255, 136); transform-origin: 265.425px 75.6131px;" id="elo6vzfqp9mxf" class="animable"></path><g id="eltps0foybh9"><path d="M229.72,91h0c0,10,3.52,17,9.21,20.24,1.48.84,7.45,4.45,8.94,5.31,5.65,3.26,13.45,2.8,22.07-2.18Z" style="opacity: 0.65; transform-origin: 249.83px 104.815px;" class="animable"></path></g><g id="elgts5huk899s"><path d="M234.27,69.58A57.92,57.92,0,0,0,229.72,91l40.22,23.37h0A58,58,0,0,0,286.18,99.7Z" style="opacity: 0.55; transform-origin: 257.95px 91.975px;" class="animable"></path></g><g id="elmsvbp04pt6f"><path d="M286.18,99.7c9-11.52,15-26.4,15-39.43,0-10-3.49-16.94-9.14-20.2l-9-5.35c-5.65-3.27-13.46-2.81-22.08,2.17C249.64,43.41,239.75,56,234.27,69.58Z" style="opacity: 0.4; transform-origin: 267.725px 66.1661px;" class="animable"></path></g><path d="M269.94,42.24c-17.24,10-31.22,34.16-31.21,54.07s14,28,31.21,18,31.23-34.16,31.21-54.06S287.16,32.29,269.94,42.24Z" style="fill: rgb(0, 255, 136); transform-origin: 269.94px 78.2879px;" id="elt2bbncxue4" class="animable"></path><g id="elyjzehh9eoq"><path d="M269.94,42.24c-17.24,10-31.22,34.16-31.21,54.07s14,28,31.21,18,31.23-34.16,31.21-54.06S287.16,32.29,269.94,42.24Z" style="opacity: 0.2; transform-origin: 269.94px 78.2879px;" class="animable"></path></g><path d="M269.94,51.25C257,58.72,246.52,76.88,246.52,91.81s10.49,21,23.42,13.52,23.41-25.63,23.41-40.56S282.87,43.78,269.94,51.25Z" style="fill: rgb(250, 250, 250); transform-origin: 269.935px 78.2922px;" id="elr0u57xha74i" class="animable"></path><path d="M269.94,59.45c-9,5.2-16.32,17.85-16.32,28.26s7.31,14.62,16.32,9.42,16.31-17.86,16.31-28.26S279,54.24,269.94,59.45Z" style="fill: rgb(0, 255, 136); transform-origin: 269.935px 78.2887px;" id="elykxgwdpxy7e" class="animable"></path><g id="elwwjkgb3diro"><path d="M269.94,59.45c-9,5.2-16.32,17.85-16.32,28.26s7.31,14.62,16.32,9.42,16.31-17.86,16.31-28.26S279,54.24,269.94,59.45Z" style="opacity: 0.2; transform-origin: 269.935px 78.2887px;" class="animable"></path></g><path d="M269.94,67.86c-5,2.88-9,9.88-9,15.64s4,8.1,9,5.22,9-9.89,9-15.65S274.93,65,269.94,67.86Z" style="fill: rgb(250, 250, 250); transform-origin: 269.94px 78.2934px;" id="el513ndco26is" class="animable"></path><path d="M269.94,73.89a8.4,8.4,0,0,0-3.81,6.6c0,2.43,1.7,3.41,3.81,2.2a8.44,8.44,0,0,0,3.81-6.6C273.75,73.66,272,72.67,269.94,73.89Z" style="fill: rgb(69, 90, 100); transform-origin: 269.94px 78.2878px;" id="elpkt92ss173" class="animable"></path></g><g id="freepik--Arrow--inject-250" class="animable" style="transform-origin: 312.17px 103.869px;"><path d="M336.39,117s.73,9.15,5,11.59,6.52-5,3.78-6.55Z" style="fill: rgb(0, 255, 136); transform-origin: 341.379px 123.039px;" id="el9mr6tqybh5h" class="animable"></path><path d="M336.39,117s8.29-4,12.52-1.51-1,8.13-3.78,6.55Z" style="fill: rgb(0, 255, 136); transform-origin: 343.446px 118.494px;" id="el9kh1o2h0u0h" class="animable"></path><g id="elbqzy6ad56nk"><path d="M336.39,117s8.29-4,12.52-1.51-1,8.13-3.78,6.55Z" style="fill: rgb(255, 255, 255); opacity: 0.5; transform-origin: 343.446px 118.494px;" class="animable"></path></g><polygon points="280.79 85.95 351.36 126.72 352.27 125.09 280.65 83.72 280.79 85.95" style="fill: rgb(55, 71, 79); transform-origin: 316.46px 105.22px;" id="elgu69jbwgbu" class="animable"></polygon><path d="M350.23,123.26a2.74,2.74,0,1,0,3.74,1A2.75,2.75,0,0,0,350.23,123.26Z" style="fill: rgb(38, 50, 56); transform-origin: 351.599px 125.635px;" id="el2tnnms09eql" class="animable"></path><path d="M282.42,85.81c2.24,3-1.82,8.08-1.82,8.08L270,78.66Z" style="fill: rgb(0, 255, 136); transform-origin: 276.547px 86.275px;" id="elyb3dhfp0b5" class="animable"></path><path d="M282.42,85.81c2.24,3-1.82,8.08-1.82,8.08L270,78.66Z" style="fill: rgb(0, 255, 136); transform-origin: 276.547px 86.275px;" id="elbtzvmqujge5" class="animable"></path><path d="M288.5,80.2s-2.4,6.08-6.08,5.61L270,78.66Z" style="fill: rgb(0, 255, 136); transform-origin: 279.25px 82.248px;" id="el6hxj92phyi2" class="animable"></path><g id="el96kvgpqlet9"><path d="M288.5,80.2s-2.4,6.08-6.08,5.61L270,78.66Z" style="fill: rgb(255, 255, 255); opacity: 0.5; transform-origin: 279.25px 82.248px;" class="animable"></path></g></g></g></g><defs>     <filter id="active" height="200%">         <feMorphology in="SourceAlpha" result="DILATED" operator="dilate" radius="2"></feMorphology>                <feFlood flood-color="#32DFEC" flood-opacity="1" result="PINK"></feFlood>        <feComposite in="PINK" in2="DILATED" operator="in" result="OUTLINE"></feComposite>        <feMerge>            <feMergeNode in="OUTLINE"></feMergeNode>            <feMergeNode in="SourceGraphic"></feMergeNode>        </feMerge>    </filter>    <filter id="hover" height="200%">        <feMorphology in="SourceAlpha" result="DILATED" operator="dilate" radius="2"></feMorphology>                <feFlood flood-color="#ff0000" flood-opacity="0.5" result="PINK"></feFlood>        <feComposite in="PINK" in2="DILATED" operator="in" result="OUTLINE"></feComposite>        <feMerge>            <feMergeNode in="OUTLINE"></feMergeNode>            <feMergeNode in="SourceGraphic"></feMergeNode>        </feMerge>            <feColorMatrix type="matrix" values="0   0   0   0   0                0   1   0   0   0                0   0   0   0   0                0   0   0   1   0 "></feColorMatrix>    </filter></defs></svg>